<svg id="Layer_1" data-name="Layer 1" xmlns="http://www.w3.org/2000/svg" viewBox="0 0 14 14"><defs><style>.cls-1{fill:none;}.cls-2{fill:#262626;}.cls-3{fill:#df4026;}</style></defs><title>features</title><rect class="cls-1" width="14" height="14"/><path class="cls-2" d="M6.75.3A6.93,6.93,0,0,1,9.89,1a.67.67,0,0,1,.39.94.69.69,0,0,1-1,.28,5.35,5.35,0,1,0,2.89,6.11,5.14,5.14,0,0,0,.08-2.14c-.1-.56.18-1,.67-.94a.65.65,0,0,1,.62.53,6.66,6.66,0,0,1-4.35,7.58A6.65,6.65,0,0,1,.55,8.78,6.66,6.66,0,0,1,4.75.69,6.42,6.42,0,0,1,6.75.3Z" transform="translate(0 0)"/><path class="cls-3" d="M6.83,7.43a13.25,13.25,0,0,1,5.63-5.27c.13-.07.24-.08.33,0s0,.23-.08.33A16.07,16.07,0,0,0,8,9.5c-.13.34-.22.7-.32,1.06,0,.1-.06.2-.18.23a.25.25,0,0,1-.26-.11L3.08,6.15C3,6.07,2.94,6,3,5.87s.15-.14.27-.14H5.18a.42.42,0,0,1,.3.15L6.74,7.33Z" transform="translate(0 0)"/></svg>