<svg id="Layer_1" data-name="Layer 1" xmlns="http://www.w3.org/2000/svg" viewBox="0 0 743.72 555.58"><defs><style>.cls-1{fill:#f7f8f8;}</style></defs><title>shape</title><path class="cls-1" d="M.28,35.21v-4.8c1.26-4.53,2.63-5.59,7.56-6,5.49-.49,10.88.86,16.36.75,18.38-.35,36.77.5,55.14,1,53.84,1.32,107.68.44,161.52.39,13.29,0,26.64-.09,39.95-.64,20-.83,39.94-1,59.9-1.66,21-.66,42.06-1.17,63.07-2.36,22.47-1.27,45-2,67.42-3.25,25.92-1.48,51.85-2.91,77.74-4.8,26.17-1.92,52.32-4,78.47-6.07,21.65-1.68,43.24-4,64.89-5.59C700,1.55,707.66.72,715.38.61a20.59,20.59,0,0,1,6,0c4.15,1.48,5.81,3.77,5.58,8-1,17.82-1.42,35.67-2.26,53.49-2.23,47.83-1.4,95.67-1.24,143.51.07,19.83.85,39.68,1.54,59.51.81,23.42,1.81,46.84,3.19,70.23,1.4,23.93,2.82,47.86,4.8,71.75,2.17,26.29,4.45,52.57,7.49,78.78,1.48,12.82,3.45,25.61,3.5,38.57,0,5.67-1.94,8.08-7.6,7.86-13.17-.52-26.37-.35-39.53-1.23-1.07-.07-2.13-.25-3.19-.22-17.34.46-34.65-.73-52-1-21.44-.31-42.89-.88-64.33-1.59s-42.63-.91-63.93-1.63c-25.87-.87-51.73-.81-77.57-.47-21.58.27-43.18.5-64.73,1.57-20.62,1-41.28,1.55-61.85,3.24-24.16,2-48.36,3.63-72.5,5.9-29.46,2.78-58.9,5.68-88.35,8.48-25.74,2.45-51.49,4.87-77.2,7.58-12.45,1.31-24.93,2.22-37.45,2.57a3.58,3.58,0,0,0-2.31.41h-8.8c-4-.92-5.25-3.83-5.22-7.47.06-7.06.39-14.14,1-21.14.77-9,.82-18.11,1.08-27.13.4-13.58,1.18-27.15,1.12-40.75-.09-20.78,1.4-41.56.71-62.34-.66-19.72-.42-39.44-.9-59.15-.47-18.9-.78-37.82-1.6-56.71S17.23,243.78,16,225c-1-15-1.52-30.06-2.65-45.06-1.63-21.51-3.26-43-5.09-64.53C6.05,89,2,62.81.68,36.32A2.64,2.64,0,0,0,.28,35.21Z" transform="translate(-0.28 -0.39)"/></svg>