<svg id="Layer_1" data-name="Layer 1" xmlns="http://www.w3.org/2000/svg" viewBox="0 0 714.89 714.5"><title>1</title><path d="M142.67,810.91V554.55H298.89c.7,5.35,1.37,10.41,2.06,15.58,29.9,2.52,59.89,4,89.57,7.81,41.3,5.36,80.82,16.11,113,45.23,3.32,3,9.65,3.66,14.61,3.76,19,.42,38.06.14,57.1.18,36.7.09,51.25,10,65.39,45.92,14.08-4.72,28.31-9.51,42.55-14.27,50.56-16.92,100.73-15.7,150.61,3,13.41,5,23.4,13.06,23.8,28.34.37,14.41-8.24,22.91-20.79,28.9-82.45,39.35-164.46,79.64-247.25,118.28-54,25.19-109.47,25-164.81,3.19-40.72-16-81.33-32.37-123.44-49.15-.82,7.27-1.49,13.2-2.21,19.6ZM431.05,695.16H449.4q64.2,0,128.4-.06c9.89,0,20.77.15,21.06-13.09.31-14.34-11.18-14.32-21.58-14.32-19.55,0-39.12-.4-58.65.14-18,.5-35.9,2.14-46.34-17.59-1.79-3.4-6.22-5.74-9.88-7.75C411.88,614.79,356.8,613.76,300,612.92c0,41.8.34,81.33-.24,120.86-.15,10.11,3.33,14.86,12.6,18.44,43.32,16.75,86.27,34.45,129.55,51.31,46.3,18,91.9,15.72,136.69-5.81Q679.23,749.33,780,701.19c4.31-2.07,8.4-4.61,14-7.69-3.66-1.6-5-2.49-6.5-2.79-3.62-.72-7.29-1.21-10.94-1.73-57.48-8.15-107,18.81-158.77,35.89-12.77,4.21-25.86,9.86-38.94,10.25-43.82,1.3-87.7.56-131.56.52-5.17,0-10.34-.47-16.16-.76Zm-247.61-100V770.33h75V595.12Zm424-18.41C490.29,578.57,390.54,482,388.64,364.87c-2-122,93.11-220.94,214.09-222.84C722,140.15,821.79,236.72,823.34,355.45,824.92,476.73,729.23,574.78,607.4,576.71ZM429.31,358.78c-.3,97.4,78.31,176.88,175.58,177.52,97,.64,177.1-78.57,177.61-175.57.51-98.14-78.66-178.15-176.45-178.31C508.91,182.27,429.6,261.41,429.31,358.78ZM619.67,486.5c-.9-1.29.2-15.57-.7-16.86,11-.64,14-1.64,23-6.15,12.54-6.3,23-19.49,27.07-32C685,385,657,344.22,608.88,339.28c-17.46-1.8-28-10-29.1-23.59-1.07-13.79,5.48-23.5,18.5-28.05s24.33,2,32.79,17.44c1.68,3.07,5.42,6.79,8.46,7,10.73.85,21.57.33,33,.33C671.26,285.76,646,248,619,245.88c-.12,0,0,.12-.06-13.27H590.08c1,1.27-.08,11.39-.08,13.82-7,3.57-9.25,3.2-15.2,6.68-26.52,15.53-40.22,42.94-34.51,72.09,5.89,30.07,29.07,50.78,60.28,54,4.71.49,9.6.8,14,2.35,11.81,4.19,17.93,13.26,17.44,25.52s-7.49,20.84-19.46,24.15c-12.15,3.37-21.88-1.15-28.73-11.4-2.57-3.84-4-8.43-6-12.65H539.11C540.49,432.75,560,465,590.66,468.5c1.42.17.34-.5.63,18Z" transform="translate(-142.67 -142)"/></svg>