<svg id="Layer_1" data-name="Layer 1" xmlns="http://www.w3.org/2000/svg" viewBox="0 0 739.36 739.44"><title>10</title><path d="M803.56,870.13a68.87,68.87,0,0,1-39.74-22.46c-1,16-5,19.7-20.09,19.7H150.84c-1.93,0-3.86.07-5.78-.07-7.86-.56-13.42-5.54-14.32-12.75-.82-6.62,3.37-12.5,10.74-15,.89-.31,1.78-.66,3.42-1.27v-7.58q0-81.24,0-162.49c0-15.75,4.58-20.39,20.12-20.4q40.44,0,80.88,0c14.93,0,20,5,20,19.85q0,80.88,0,161.77v8.82h34.51v-8.08c0-24.55-.05-49.11,0-73.66,0-13.42,4.89-18.41,18.22-18.47q42.26-.16,84.5,0c12.92.06,17.85,5.14,17.89,18,.08,24.55,0,49.11,0,73.66v8.35h34.54V698.42c0-16.28,4.39-20.77,20.37-20.78q40.8,0,81.6,0c14.25,0,19.08,4.86,19.08,19.09q0,66.45,0,132.88V838h34.58V814.9c0-15.41-.07-30.82,0-46.22.06-12.37,5.09-17.47,17.55-17.69,9.63-.17,19.26,0,28.89-.06,2.28,0,4.56-.26,8.2-.49-2.6-2.86-4.23-4.79-6-6.57q-29.34-29.39-58.7-58.75c-8-8-8.61-12.27-3.89-22.07l-50-49.59c-14.23,7.6-28.8,16.54-44.28,23.44-58.2,26-118.4,30.29-179.63,12.94C259,631.58,208.77,593.56,172.3,537.42a254.08,254.08,0,0,1-40-113.18c-6-57.13,5-111.07,34-161C195.42,213,236.81,176,290,152.68a257.37,257.37,0,0,1,138.25-19.76c60.89,7.83,112.85,33.79,156,77.24,31.83,32.05,53.51,70.18,66,113.55,2.78,9.71-.74,17.37-8.89,20-7.76,2.55-15.56-1.92-18.44-11.56-8.64-28.85-21.22-55.71-39.78-79.51-41.24-52.86-95.1-84.32-161.79-91.51-74-8-138.39,14.82-191.65,66.63-37.49,36.48-60.57,81.22-67.41,133.34C151,447.48,178.86,519.65,244.56,576.31c39,33.64,85.23,51.7,137,54.19,80.28,3.85,146-25.93,197.48-87.14,19.87-23.63,33.59-50.86,42.39-80.51a78.29,78.29,0,0,1,3-8.88c3.33-7.7,10.19-11,17.5-8.7s12,10,9.33,17.81C645.81,479,640.37,495,633.55,510.26c-5.65,12.66-13.33,24.41-20.45,37.17,15.77,15.8,31.85,32,48.07,48a4.85,4.85,0,0,0,4.31.72c8-3.5,13.88-.3,19.33,5.28,6.39,6.55,12.92,13,19.39,19.42,46,46,91.74,92.09,138,137.77,13.08,12.92,24.37,26.44,27.82,45.07v14.44c-3.85,9.11-6.63,18.88-11.78,27.19-9.05,14.64-24,21.1-40.22,24.81Zm-130-153.34q47,47,93.56,93.5c8,8,15.72,16.3,24.2,23.73,13.94,12.22,35.35,8.6,45.09-7.08,7.95-12.8,5.78-27.29-6.14-39.24Q775,732.28,719.6,677c-1.11-1.11-2.36-2.07-3.28-2.87ZM174,838.18h62.79V677.09H174Zm373.54,0V707H484.87v131.2Zm-155.77,0v-71.1H329.7v71.1Zm311.64.07c0-15.58,0-30.44,0-45.31,0-8.42-4.89-13.32-13.24-13.36-9.62,0-19.24,0-28.86,0H640.59v58.68ZM572.54,593.39l46,45.88,21.89-21.39-46-46Zm58,78.8L652.14,694l41.17-41.17-21.38-22ZM754.05,838.55l-2,1.94-19.55-20.43v18.49ZM203.1,394.94c0-8.19-.18-16.38.05-24.56.27-9.62,3.74-13.85,13-16.59a4.86,4.86,0,0,1,1.38-.42c22.05.43,27.29-16.19,32.61-32.47.62-1.89-.23-4.68-1.26-6.59-3.08-5.71-6.72-11.11-9.89-16.77-4.38-7.81-3.9-13.38,2.25-19.69q18.14-18.62,36.77-36.76c6.09-5.93,11.51-6.31,19.08-2.35a4.72,4.72,0,0,1,1.25.69c15.33,15.92,31.11,8.72,46.74.71,1.77-.91,3.27-3.32,3.89-5.34,1.9-6.2,3.17-12.58,4.94-18.82,2.52-8.93,6.85-12.67,15.93-12.81q25.63-.39,51.28,0c8.92.15,14.67,4,15.49,13,1.69,18.68,12,28.11,29.13,32.64,4.72,1.25,8.38,2.11,12.67-1,4.87-3.49,10.26-6.24,15.45-9.28,6.7-3.93,13.08-3.14,18.5,2.15q19.11,18.67,37.79,37.8c5.36,5.49,5.58,12,1.83,18.61-3.34,5.85-7.18,11.42-10.22,17.41-1.11,2.19-.56,5.22-.69,7.87,0,.42.47.84.58,1.3,4.07,17.69,13.52,28.76,33.06,30.43,9.2.78,12.52,6.41,12.63,15.67q.29,25.27,0,50.55c-.1,9.75-3.4,15.27-12.88,16.19-18.63,1.8-28.16,11.84-32.66,29.19-1.33,5.13-1.75,8.82,1.34,13.15a149.91,149.91,0,0,1,8.61,14.18c4.23,7.58,3.68,13.61-2.31,19.73q-18.17,18.58-36.78,36.75c-5.8,5.66-12,6.3-19.15,2.37-5.89-3.26-11.42-7.18-17.41-10.22-2.17-1.1-5.2-.59-7.85-.67-.64,0-1.28.69-2,.84-17.63,3.93-28.1,13.68-29.74,32.77-.78,9.08-6.51,12.55-15.64,12.64q-25.63.25-51.28,0c-8.82-.09-13-3.58-15.61-12.09a9.41,9.41,0,0,1-.81-2.76c.51-22.51-17.35-26.27-33-32.11-1.56-.58-4.08.46-5.79,1.41-5.47,3-10.72,6.44-16.14,9.55C290,556,284,555.51,277.35,549q-18.06-17.67-35.75-35.74c-6.52-6.68-7-12.15-2.61-20.25a2.51,2.51,0,0,1,.38-.61c15.88-15.27,9-31,.74-46.62-1.05-2-3.71-3.55-6-4.27-5.48-1.77-11.17-2.85-16.74-4.33-10.87-2.89-14.16-7.1-14.3-18.41C203,410.82,203.09,402.88,203.1,394.94Zm89.31-125.45L269.6,292.67c2.59,4.33,5.51,9.59,8.78,14.62,3.72,5.74,4.15,11.37,1.37,17.73-5.59,12.76-10.85,25.66-16,38.6-2.44,6.12-6.55,9.77-13,11.2-6.25,1.37-12.42,3.16-18.91,4.84v14.25c0,17.19-.06,17.43,16.9,21.34,8.06,1.86,13,6.17,16,13.87,4.7,12.34,9.78,24.55,15.07,36.65,2.78,6.37,2.28,12-1.44,17.73-3.36,5.19-6.38,10.61-9.41,15.69l22.67,22.5c4.72-2.8,9.8-5.49,14.52-8.72,6.62-4.53,13.06-4.77,20.36-1.44,11.15,5.07,22.45,9.89,34,14,8.94,3.19,13.46,9,15.44,18,3.31,15.13,3.62,15.07,19.1,15.07,16.23,0,16.3,0,20.1-15.82,1.63-6.79,4-12.67,11.24-15.55,13.63-5.38,26.92-11.68,40.73-16.49,4.38-1.52,10.39-.62,14.92,1.11,6.16,2.36,11.62,6.58,16.29,9.35l23-22.89c-2.23-3.72-4.52-8.27-7.49-12.32-5.62-7.65-5.68-15.16-1.65-23.63a308,308,0,0,0,12.69-30.6c3.46-9.85,9.42-15.23,19.93-17.2,14.09-2.64,14-3.28,14-17.21,0-17.75.07-18-17-22.06-7.82-1.83-12.65-5.88-15.52-13.31-4.76-12.32-9.85-24.52-15.16-36.61-2.9-6.59-2.46-12.45,1.44-18.41,3.37-5.16,6.38-10.56,9.77-16.23-4.09-3.91-7.89-7.25-11.33-10.93-3.59-3.84-6.83-8-10.07-11.86-6.91,4.11-12.18,7-17.18,10.29-6,4-11.89,4.31-18.4,1.34-7.21-3.27-14.69-6-22-9.12-27.18-11.8-24.35-6.16-31.19-34.1-.42-1.74-2.78-4.2-4.33-4.27-9.31-.4-18.66-.2-28.14-.2-1.68,6.45-3.45,12.18-4.62,18-1.4,7-5.24,11.42-11.94,14q-19.12,7.49-37.94,15.73c-6.32,2.75-12,2.45-17.76-1.25C302.15,275.1,296.73,272.06,292.41,269.49Zm353.88,141.2a14.83,14.83,0,0,0,13.81-14.8c0-8.08-6.71-14.89-14.54-14.79s-14.17,6.82-14,15.17S638.4,411.06,646.29,410.69ZM387,495.78c42.2,3.41,81.64-19.75,99.88-58.64,17.4-37.11,9.57-82.49-19.74-112.16-19.09-19.32-42.36-29.54-69.65-30.1-11.77-.25-19.28,9.07-15.46,19.16,2.66,7,8.78,8.52,15.53,9.69,9.39,1.63,19.39,2.65,27.75,6.75,45,22.08,55.46,75.23,22.86,113.27-30.32,35.38-91.34,29.2-114.31-11.36-10.26-18.1-12.78-36.87-7.66-57,2.54-9.95-1.61-17.62-9.71-19.54-8.72-2.07-16,2.86-18.19,12.95-1.8,8.42-2.87,17-4.26,25.51C293.63,446.32,334.81,491.56,387,495.78ZM360,324.41a14,14,0,0,0-14.44-13.89,14.22,14.22,0,0,0-14,14.36,14.23,14.23,0,0,0,28.46-.47Z" transform="translate(-130.64 -130.69)"/></svg>