<svg id="Layer_1" data-name="Layer 1" xmlns="http://www.w3.org/2000/svg" viewBox="0 0 595.76 495.45"><title>11</title><path d="M780,735.05c-2.52,0-5-.13-7.56-.13H184.24V239.6h34.35V700H772.44c2.52,0,5,.08,7.56.12ZM453.12,565.14c1.13.9,1.44,3.26,1.52,5,.35,6.73-.69,13.76.86,20.18,5.33,22.12,19.42,36.64,41.68,41.39,21.44,4.58,40.12-1.89,53.87-19.32s15.85-36.58,6.89-56.81c-1.42-3.22-1.58-5.4.69-8.31q21.82-28,43.25-56.3c2.06-2.71,3.93-3.46,7.27-2.58,23.53,6.19,44.64-1.17,59.24-20.44,12.64-16.67,13.72-40.46,2.38-59.69-1.87-3.17-1.37-5,.81-7.58,14.39-16.8,28.63-33.72,43-50.57a42.68,42.68,0,0,1,3.78-3.33v39.88h34V289.39H655.68v34.78h34.66c-1.74,2.22-2.86,3.73-4.06,5.16-13.91,16.45-27.93,32.8-41.68,49.38-3,3.66-5.6,5.31-10.72,4-4.72-1.23-10-.9-15-.5-37.61,3.06-60.78,44.39-43.63,77.95,2,3.9,1.7,6.29-.95,9.67q-21,26.79-41.49,54c-2.48,3.29-4.63,4.05-8.66,2.8-16.57-5.13-32.22-2.67-46.48,7.24-3.05,2.12-5,2.26-8-.13-16.26-12.91-32.77-25.48-49-38.43a11.86,11.86,0,0,1-3.89-7.09c-3-22.31-18.5-39.86-41.25-46.08-20.41-5.58-43.2,2.85-57.06,21.11-12.52,16.49-13.82,40.88-2.8,59.21,2,3.39,1.86,5.59-.21,8.8q-35.43,55-70.58,110.22c-1.13,1.77-2.21,3.59-3.57,5.81L270.56,666c1.63-2.47,2.93-4.38,4.18-6.33q34.45-53.91,68.87-107.86c2-3.15,3.66-4.36,7.82-3.44,16.72,3.73,31.93-.2,45.37-10.72,3.31-2.59,6.15-5.78,9.52-9C422,540.8,437.64,552.87,453.12,565.14Zm75.21,13.44a19.71,19.71,0,1,1-39.41-.33,19.71,19.71,0,0,1,39.41.33Zm95.86-122.86a19.76,19.76,0,0,1-19.82-19.36c-.15-10.74,9.22-20.05,20-19.89a19.81,19.81,0,0,1,19.41,19.79A19.49,19.49,0,0,1,624.19,455.72ZM362.35,475.41a19.7,19.7,0,1,1-19.22,19.83A19.63,19.63,0,0,1,362.35,475.41Z" transform="translate(-184.24 -239.6)"/></svg>