<svg id="Layer_1" data-name="Layer 1" xmlns="http://www.w3.org/2000/svg" viewBox="0 0 706.42 683.76"><title>12</title><path d="M146.9,766.45c3.92-5.88,9.4-7.61,16.4-7.6Q500.16,759,837,759c12.85,0,16.28,3.5,16.29,16.4q0,19.65,0,39.31c0,10.78-4.18,14.83-15.13,15-.92,0-1.84,0-2.76,0q-335.47,0-670.95.09c-7.43,0-13.56-1.4-17.56-8.12Zm682.71,16.66H170.82v22.47H829.61ZM606.18,421.47c-3.71-5.62-7.36-11.16-11-16.68q-38-57.09-76-114.22c-2.47-3.74-4.58-5.21-9.35-4-13.19,3.4-25.46.4-37.15-7.44q-20.1,16.69-40.2,33.42c-8.67,7.2-17.19,14.58-26,21.54-3.75,2.95-4.73,5.41-3.11,10.32a46.88,46.88,0,1,1-90,26.16c-1.67-6.77-1.26-14-1.89-22.2-.63-.37-2.3-1.48-4.09-2.38-12.31-6.18-25-11.74-36.88-18.62-10.52-6.07-18.43-8.12-29.87.71-16.21,12.52-40.66,8.23-55.73-6.21a47.06,47.06,0,0,1,44.05-79.59c20.13,4.82,35.77,23.16,35.09,43.92-.32,9.76,2.86,14,11.22,17.68,16.13,7.19,31.71,15.6,47.83,23.66,19.08-18.45,40.21-21.34,63.4-7.38l70.93-59c-3.93-10.26-5.91-20.72-3-31.57,5.2-19.43,17.82-31.31,37.34-35.33,18.46-3.79,37.46,4.76,47.79,20.59a46.22,46.22,0,0,1-.61,51.91c-3.09,4.38-2.82,7.1,0,11.32q41.71,62.08,82.95,124.48c2.81,4.26,5.22,5.67,10.51,4.29,5-1.29,10.52-1,15.71-.38,3.94.46,5.69-.78,7.46-4q46-84.76,92.38-169.36c2.23-4.07,1.28-6.29-1.35-9.49a47.2,47.2,0,0,1-4.88-53.53c9.46-16.66,28.58-26.26,47-23.62,20.42,2.92,35.63,16.58,40.41,36.3,7.73,31.89-20.07,62.51-52.6,57.52-4.73-.73-6.39.7-8.36,4.33q-45.86,84.46-92,168.8c-1.79,3.28-2.5,5.42.48,8.9,16.54,19.3,15.36,46.86-2.3,64.29A47,47,0,0,1,611.09,489c-19.28-16.38-22.26-43.58-7.08-64.52C604.67,423.59,605.32,422.67,606.18,421.47ZM783.47,170.33c-13.32-.33-23.93,9.68-24.18,22.81a23.36,23.36,0,0,0,22.92,24.15,23.49,23.49,0,0,0,1.26-47ZM664.81,452.59A23.18,23.18,0,0,0,641,429.39a23.48,23.48,0,0,0-23.22,23.24,24,24,0,0,0,23.6,23.76A23.59,23.59,0,0,0,664.81,452.59ZM217.74,311.33a23.08,23.08,0,0,0,23.18-23.78,23.41,23.41,0,0,0-23.26-23.18A23.81,23.81,0,0,0,194,288,23.44,23.44,0,0,0,217.74,311.33ZM358.63,382a23.57,23.57,0,0,0,23.79-23.41A23.87,23.87,0,0,0,358.69,335a23.49,23.49,0,0,0-23.27,23.21A23.23,23.23,0,0,0,358.63,382Zm165-141.08a23.48,23.48,0,1,0-23.74,23.37A23.49,23.49,0,0,0,523.58,240.93ZM841.49,546.39q0,91.4,0,182.78c0,15.09-2.94,18-18.26,18q-42.08,0-84.15,0c-11.29,0-15.34-4.07-15.35-15.41q0-184.85,0-369.71c0-11,4-15.06,14.87-15.07q43.8,0,87.6,0c11.51,0,15.25,3.67,15.26,15.29Q841.53,454.31,841.49,546.39ZM747.8,370.74V723.28h69.65V370.74ZM441.12,570.58q0-79.65,0-159.29c0-14.13,3.27-17.35,17.52-17.35q42.41,0,84.82,0c11.5,0,15.59,3.87,15.59,15.14q.06,161.35,0,322.71c0,11.32-4.11,15.32-15.46,15.34q-43.44,0-86.88,0c-11.65,0-15.59-4-15.59-15.89Q441.1,650.92,441.12,570.58Zm24.15-152.85v305.6h69.79V417.73ZM276.49,594.68q0,68,0,135.88c0,12.81-3.69,16.56-16.28,16.57q-42.76,0-85.53,0c-12.06,0-15.92-3.67-15.93-15.42q0-137.61,0-275.21c0-11.84,3.85-15.54,15.83-15.54q43.1,0,86.21,0c11.76,0,15.69,4,15.7,15.77Q276.51,525.72,276.49,594.68ZM182.9,464.85V723h69.51V464.85ZM300,629.18q0-51,0-102.09c0-11.53,3.84-15.5,15.19-15.52q43.8-.07,87.6,0c10.68,0,14.75,4,14.75,14.51q.06,103.13,0,206.26c0,10.9-4,14.76-15.13,14.78q-43.46,0-86.92,0c-11.73,0-15.5-3.88-15.5-15.85Q300,680.24,300,629.18Zm93.56,94.31V535.66H324.07V723.49ZM700.21,676.9c0,18.62,0,37.24,0,55.86,0,10-4.24,14.33-14.22,14.35q-44.47.09-89,0c-10.14,0-14.32-4.12-14.34-14.16q-.07-56.55,0-113.1c0-9.85,4-13.85,13.81-13.88q44.82-.12,89.66,0c10.12,0,14,4.12,14.06,14.37C700.25,639.2,700.21,658.05,700.21,676.9Zm-23.9,46.42V630H606.59v93.35Z" transform="translate(-146.9 -146)"/></svg>