<svg id="Layer_1" data-name="Layer 1" xmlns="http://www.w3.org/2000/svg" viewBox="0 0 793.58 738.09"><title>13</title><path d="M897,532.36c-.88,2.36-1.86,4.69-2.63,7.09-7.06,21.87-25.78,36.89-48.64,38.19-11.85.67-23.77.62-35.63.23a26.72,26.72,0,0,0-17.81,5.66c-27.43,20.23-55.13,40.1-82.72,60.12-4.91,3.57-9.79,7.08-16.24,3.73S686.94,638,686.94,632c0-17.54,0-35.08,0-54H676.7q-113.55,0-227.1,0c-29.46,0-51.25-16.63-57.15-43.48a71.91,71.91,0,0,1-1.19-15.4q-.11-145.71,0-291.44c0-36.54,23-59.29,59.62-59.34,17.57,0,35.14-.11,52.71.05,9.15.08,14.47,5.41,13.62,13-.71,6.32-5.41,10.07-13.27,10.12-17.83.11-35.66,0-53.49,0-23.33,0-35.93,12.56-35.93,35.87q0,145.72,0,291.44c0,23.45,12.36,35.83,35.82,35.85q120.52.06,241.06,0c16.32,0,18.84,2.54,18.85,18.94,0,12.88,0,25.77,0,40.43,3.28-2.22,5.33-3.53,7.29-5C740.29,592.67,763,576,786,559.82A29.87,29.87,0,0,1,800.89,555c12.88-.68,25.83-.11,38.74-.26,21.25-.24,34.09-13.24,34.1-34.55q0-146.88,0-293.76c0-21.59-13.14-34.8-34.77-34.81q-136.8-.09-273.61,0c-2.59,0-5.17.08-7.75,0-8-.32-12.68-4.7-12.62-11.6,0-6.56,4.6-11,12-11.56,2.31-.18,4.64-.06,7-.06H829.07c40,0,53.8,9.37,67.93,46.23ZM568.49,694.87c12.43-10.59,24-11.77,38.55-4,9.57,5.09,19,10.46,28.59,15.49,7,3.67,13.59,2.11,16.87-3.61,3.47-6,1.25-12.73-6-16.81-9.43-5.34-19-10.44-28.54-15.57-23.12-12.42-45.45-9.93-65.2,7.32q-19.56,17.08-39,34.29c-26.39,23.31-33.53,23.82-61.71,3.26-64.54-47.1-120.15-102.53-160-172.51-9.71-17-8.36-29.09,5.13-43.44,12.58-13.35,25.45-26.44,37.78-40,16.2-17.83,20.34-38.59,9.89-60.24q-34.32-71.08-70.6-141.23c-17-32.81-58-39.38-85.6-14.72-10.2,9.13-20.5,18.2-30.07,28q-70.23,71.74-50.93,170.46c5.24,26.51,18.42,49.71,31.14,73,8,14.72,16.38,29.31,25.48,43.38,2.18,3.37,8,6.12,12,6,3.15-.08,7.8-4.58,8.78-8s-.8-8.53-2.75-12.14c-12.64-23.38-26.32-46.21-38.39-69.87-19.69-38.6-22.45-79-9.56-120.32A155.14,155.14,0,0,1,175.54,287a29.19,29.19,0,0,1,2.17,2.94q50.37,94.23,100.5,188.57c1.06,2,.09,6.41-1.54,8.33C263.86,502,259,519.15,264.76,538.05c3,9.69,8.5,18.76,13.81,27.54,41.08,67.82,96.37,122.2,160.05,168.59,2.93,2.13,5.88,4.22,8.82,6.31,25.17,17.94,50.35,17,73.24-3.9,6.55-6,10.83-6.1,18.32-1.81,49.94,28.6,100.22,56.62,150.38,84.83,10.26,5.77,20.48,11.58,32.07,18.14-2.7,2.11-4.56,3.45-6.28,5-48.8,42.61-118,52.1-175.89,23a935.14,935.14,0,0,1-163.4-104.69A848.34,848.34,0,0,1,219.73,599.23c-5.38-7.31-12.07-9-17.83-4.91s-6.53,11.36-1,18.33c16,20.25,31.56,41,48.61,60.32,77.75,88.34,170.39,157.66,274.82,211.2,61.83,31.7,123.89,29.58,182.79-7.3,20.5-12.84,38.29-30.6,55.62-47.82,26.8-26.62,20.18-68-12.8-86.76-15.93-9-32.13-17.63-48.25-26.33-8.43-4.56-15.24-3.22-18.71,3.45-3.31,6.37-.76,12.34,7.46,16.85Q714.18,749.31,738,762.2c8.07,4.38,13.86,10.63,16.43,19.62q6.3,22-16.62,38.38l-190.14-107C555,706.75,561.64,700.7,568.49,694.87ZM294,458.19q-48.5-90.75-97.07-181.44c-2.7-5-2.8-8.32,2-11.61,2.1-1.45,3.76-3.53,5.72-5.21,16.33-14.08,39.47-10.3,49.24,8.89,23.52,46.18,46.57,92.59,69.58,139,6.09,12.29,4.45,24.18-4.64,34.56-6.61,7.54-13.72,14.64-21,22.33C296.28,462.14,295.05,460.21,294,458.19ZM526,343.57c-22.17-.4-41.1,18.22-41.2,40.52s18.68,41.05,40.88,40.87a40.7,40.7,0,0,0,.32-81.39Zm-.12,58.05c-9.45.26-17.89-8-17.78-17.52a17.8,17.8,0,0,1,17.33-17.22,17.37,17.37,0,0,1,.45,34.74Zm236.91-58.06c-22.24-.08-40.93,18.71-40.76,41,.18,22,18.57,40.34,40.55,40.42a40.7,40.7,0,0,0,.21-81.39Zm-17.47,40.65a17.84,17.84,0,0,1,17.41-17.33,17.37,17.37,0,0,1-.08,34.74C753.34,401.58,745.24,393.45,745.27,384.21ZM643.75,424.94c22.27.27,40.89-18.3,40.85-40.77a40.82,40.82,0,0,0-40.24-40.59c-22.35-.24-40.79,18.2-40.76,40.75A40.65,40.65,0,0,0,643.75,424.94Zm17.57-40.86a17.56,17.56,0,0,1-17.11,17.52,17.36,17.36,0,0,1-.34-34.71A17.6,17.6,0,0,1,661.32,384.08Z" transform="translate(-103.42 -168.27)"/></svg>