<svg id="Layer_1" data-name="Layer 1" xmlns="http://www.w3.org/2000/svg" viewBox="0 0 828.54 713.91"><title>14</title><path d="M828,586.6c16.41,13.44,33.58,24.11,46.41,38.63,40.2,45.44,50.46,98.35,28.42,154.85-22.11,56.66-65.18,89.94-126,96-59.71,5.91-106.66-18.61-140.93-67.45-3.54-5.05-6-6.42-12.06-4.27C463.84,861.27,294.24,795,216,644.87c-23.94-46-35.33-95.28-36.11-147-.1-6.25-2.06-8.91-7.92-11.69-51.46-24.35-80.69-65.83-85.7-121.85-7-78.61,45.4-144.94,123.09-158.53,34-5.94,66.16.85,96.16,17.85,2.59,1.46,5.17,2.94,7.64,4.35,125.39-93.88,286.11-78.09,389.23-3.24C808.38,301.64,868.77,440.13,828,586.6Zm-68.24,13.59C685.65,602.5,632.31,660,634.63,735c2.09,67.3,62.53,122.88,131.5,120.91,71.36-2,125.94-61,123.88-133.82C888.07,653.8,828.48,598,759.76,600.19ZM357.09,481.1H652.45c-2.34-52.91-13.48-102.94-35.12-151-75.37,23-149.58,21.6-225.47-3.39-4.39,15.5-8.55,30-12.61,44.57-3.37,12.09-5.36,24.73-10.17,36.21C359.17,431.08,359.52,455.9,357.09,481.1Zm35.75,177.27c37.06-12.43,74.6-19.31,113.23-20s76.18,5.15,113.29,16.37c20.13-47.55,31.33-96,31.84-147H357.77C356.3,548.34,374.61,627.05,392.84,658.37ZM232.05,475.11c69.08-.09,124.87-54.61,124.89-122,0-69.38-54.47-124.41-123.36-124.59-69.3-.18-124.83,55.58-124.78,125.31C108.84,420.88,164,475.2,232.05,475.11ZM639.36,325.28c22,50.22,33.29,103.13,35.58,157.72H817.68c-1.47-68.94-31.83-153.71-99.59-214.55-47.52-42.65-136.78-82.45-172-76.63,33.44,33,61.16,70,83.09,112.87l58-28.57,12,19.4ZM204,507.51c3.47,148.6,121,271.29,257.62,290.37A442.49,442.49,0,0,1,379.49,687l-42.3,21-11.93-19.13,42.44-21.51c-8-26.56-17.25-52.24-23.17-78.66s-8.52-53.64-12.68-81.21ZM403.13,678.83a14.33,14.33,0,0,0,.54,2.66c1.06,2.15,2.15,4.28,3.29,6.38a395,395,0,0,0,88.89,109.78c6.24,5.41,10.62,5.51,16.9.15a394.9,394.9,0,0,0,93.57-117.35,35,35,0,0,0,1.77-5.36C539.16,654.7,471.24,656.29,403.13,678.83ZM605.55,311.56a22.66,22.66,0,0,0-1-3.37c-23.58-45.2-55.1-84-93.89-117-5.38-4.58-9.7-3.37-14,1.18-20.68,22-42.2,43.33-61.69,66.35-12.22,14.43-21.38,31.45-32.8,48.66C471.05,330.08,537.88,330.32,605.55,311.56ZM807.1,583.43c4-25.92,7.75-50.54,11.59-75.64H677.24L659.91,616.11C701.38,579.25,750.21,569.09,807.1,583.43ZM462.68,191.86c-48.95,7.34-91.42,25.1-129.62,52.84,6.3,7.55,12.56,14.42,18.08,21.84s10.3,15.4,15.39,23.15c6.56,10,15,9.58,21.47.36,18.5-26.47,37.51-52.58,56.69-78.55C449.58,204.88,455.82,199.26,462.68,191.86ZM619.55,784.11c-3.74-22.56-7-42-9.85-59.48l-64.14,77.43ZM333.69,460l-31.13,23.05h31.13ZM687.14,716.61l19.33.95v29.15H687.3v23c5,0,9.53.42,13.91-.09,9.49-1.1,15.13,1.81,20.54,10.82,17.92,29.9,53,45.34,83.19,38.61V797.22c-37-2.38-54.71-10.29-61.56-28h34.26v-23H746.7c-18.42,0-18.1,0-18.54-19.07-.17-7.65,1.74-10.76,10-10.33,12.74.66,25.54.17,38.3.17V693.6H734.56c6.19-7.72,10.23-13.84,15.32-18.93,14.94-14.93,34.25-16.84,54.3-16V636.63c-32.82-6.14-66,8-83,38.25-8,14.36-15.35,24.24-34.08,17.59ZM222.85,265.66h23.6c-3.81,12.71,5,15.85,13.71,20.28,13.92,7,20.28,17.75,20.64,31-13.84,4.74-24.5-.22-32.47-13.36l-2,2.42c0,10.63-.14,21.27.15,31.89,0,1.54,1.81,3.42,3.28,4.43s3.43.88,5.14,1.42c17.93,5.68,30,19.43,30.57,34.88.68,17.27-10,33.26-28,39.92-7.65,2.84-14.3,5-10.61,15.84H223c3.09-11.2-4.52-13.09-12.44-16.13-17.08-6.55-25.69-18.36-26.37-35.17,6.46,0,12.91-.31,19.3.21,1.69.14,3.13,2.9,4.77,4.37,4,3.61,8.13,7.16,12.2,10.74l2.49-1.4c0-10.6.23-21.22-.26-31.79-.07-1.49-3.47-3.1-5.57-4.17-7.41-3.79-15.75-6.29-22.25-11.22C174,334,176.92,303,200.33,287.45c3.21-2.13,6.75-4.46,10.41-5.09C219.94,280.77,225.51,276.88,222.85,265.66Zm-.43,71.13V303.46c-11.75,2.11-19.25,9.54-19,18.38C203.54,328.51,211,334.47,222.42,336.79ZM247,365.61v31.83c10.34-3.27,16.44-9.93,15.54-17.47C261.52,371.34,255.17,367.88,247,365.61Z" transform="translate(-85.66 -163)"/></svg>