<svg id="Layer_1" data-name="Layer 1" xmlns="http://www.w3.org/2000/svg" viewBox="0 0 800.81 719.58"><title>1</title><path d="M900,320.85c-4.52,16.06-13.15,28.72-29,35.7-1.17.51-1.94,2.71-2.23,4.26a34.11,34.11,0,0,0-.11,6.24q0,220.53,0,441.07c0,33.43-18.9,52.39-52.22,52.41-18.25,0-36.5.06-54.74,0-11.15,0-18.35-6.52-18.12-16,.22-9.22,7.19-15.19,18.09-15.24,19.29-.07,38.58.06,57.87,0,11.77-.07,17.8-6.09,17.81-17.91q.06-223.27,0-446.55c0-1.27-.14-2.54-.24-4.29H161.66V807.68c0,16.91,4.75,21.56,22,21.56H612.25c14.27,0,21.67,5.28,21.76,15.5s-7.41,15.78-21.5,15.79H181.6c-31.83,0-51.22-19.31-51.22-51q0-221.32,0-442.64v-9.24c-20-9.06-31.33-23.74-31.18-45.75.17-24.1,19.8-44.44,43.86-45.6,11.18-.53,22.42-.31,33.62-.1,9.5.19,16.18,6.82,16.21,15.51s-6.64,15.38-16.1,15.63c-9.64.25-19.29,0-28.93.1-10.55.14-17.61,6.68-17.42,15.91.18,8.95,7,15.07,17.23,15.34,1.82,0,3.65,0,5.47,0H846a62.07,62.07,0,0,0,9.36-.27A15.54,15.54,0,0,0,855,297.6a73.13,73.13,0,0,0-9.37-.21H325.61c-2.61,0-5.23.12-7.82-.07-8.93-.63-15.33-7.24-15.29-15.66A15.4,15.4,0,0,1,318,266.21c14.07-.31,28.16-.34,42.22,0a16.09,16.09,0,0,0,13-5.24c24.91-25.22,50.13-50.15,75-75.38a26.15,26.15,0,0,0,6-10.45A47.65,47.65,0,0,1,499.68,141c21,0,39.24,14.13,45.22,34.44a24.07,24.07,0,0,0,5.64,9.81c25.1,25.4,50.48,50.52,75.59,75.92a15.67,15.67,0,0,0,12.27,5.06c68-.15,136.09.51,204.11-.4,27.57-.37,48.93,9.08,57.49,39.41ZM413.69,265.6H583.18L536,217.54c-9.48,10.94-21.66,17.15-36.63,17.22-15.25.06-27.25-7.1-37-17.65C446,233.41,430.15,249.19,413.69,265.6Zm86.1-93.3a15.59,15.59,0,1,0,15.33,15.44A15.77,15.77,0,0,0,499.79,172.3Zm52.94,578.36h46.93v-9.08c0-63.08-.11-126.16.05-189.24.08-28.36,21.8-50.86,49.18-51.55,29-.73,52.31,21.87,52.39,51.44.17,62.82.06,125.64.06,188.46V751h8.72c16.42,0,32.84-.19,49.26.11a15.4,15.4,0,0,1,15.47,15.42c.06,8.39-6.36,15-15.27,15.68-2.33.17-4.69.07-7,.07h-506c-17.75,0-22.3-4.5-22.3-22.07V428.68c0-14.27,5.29-21.66,15.53-21.74s15.75,7.42,15.75,21.52q0,156,0,312v9.95h46.93v-8.17c0-32.59-.22-65.17.11-97.75.26-25.36,19.33-46.18,44.57-49.58,23.73-3.19,47.3,11.82,54.42,35.19A62.64,62.64,0,0,1,404,647.78c.24,31.28.11,62.56.11,93.84v8.93h46.93V741.1q0-140.76,0-281.52c0-28.48,20.39-50.93,47.31-52.59a50.8,50.8,0,0,1,54.26,50.28c.31,24.76.08,49.53.08,74.29v219.1Zm-31.29,0V461a41.35,41.35,0,0,0-.18-5.46,19.46,19.46,0,0,0-38.35-2,39.8,39.8,0,0,0-.55,8.54q0,140.33,0,280.65v8Zm148.61.2V643.35q0-44.94,0-89.88c0-8.91-3.4-15.79-11.57-19.6-13.65-6.37-27.51,3.8-27.53,20.25q-.11,95.36,0,190.71c0,2,.36,3.94.57,6Zm-297.32-.17c0-36,.16-71.4-.13-106.77-.06-7.56-4.57-13.2-11.57-16.3-13.26-5.86-27.12,3.71-27.24,19.07-.2,26.56-.06,53.12-.06,79.68v24.32ZM247.9,266.15a15.59,15.59,0,1,0,15.38,15.41A15.71,15.71,0,0,0,247.9,266.15ZM673.24,844.23a15.59,15.59,0,1,0,15.83-14.93A15.78,15.78,0,0,0,673.24,844.23Z" transform="translate(-99.19 -140.97)"/></svg>