<svg id="Layer_1" data-name="Layer 1" xmlns="http://www.w3.org/2000/svg" viewBox="0 0 703.84 703.86"><title>2</title><path d="M463.83,851.86c-12.64-1.79-25.37-3.07-37.89-5.44-100.88-19.1-178-73-231.16-160.5-34.69-57.07-50.15-119.81-46.67-186.4,5.55-106.32,47.27-195.3,132-261.67,50.37-39.46,108.27-59.43,172.43-60.55,11.67-.2,17.61,5.65,17.73,17.71.18,17.87,0,35.74,0,53.61q0,126.81-.1,253.61A20.81,20.81,0,0,0,475,515.92Q572.2,640.53,669.14,765.31c9.45,12.14,8.5,18.65-3.64,28.2C643.83,810.57,621,825.63,595,835.45c-23.56,8.9-48,13.12-73,15-2.93.22-5.82.89-8.73,1.36Zm-23-644.52c-2.32,0-3.68-.1-5,0-74.33,6.69-134.66,40.48-182.77,96.37-39.14,45.46-62.33,98.71-71.66,157.92-6.9,43.7-5.83,87.16,5.46,130.1C221.14,722.14,334,814.54,468.54,821.83,508,824,547.31,822,585,807.86c20-7.54,38.13-18.49,55.09-31.9-1.3-1.8-2.31-3.3-3.41-4.72Q542.39,650,448,528.93a32.8,32.8,0,0,1-7.33-21.41q.24-145.33.1-290.67ZM851.47,488.9c-4,8.55-10.86,11.12-20,11.11q-156-.25-312-.12c-14.83,0-19.88-5-19.88-19.71q0-156.37,0-312.76c0-14.34,5.29-19.58,19.44-19.42C673.85,149.85,809,259.26,843,410.77c3.54,15.8,4.9,32.08,7.31,48.13.27,1.77.8,3.5,1.21,5.25Zm-30.73-18.62C818.68,320.76,687,182.17,529.31,178.5V470.28Zm30.73,94.24c-1.79,12.64-3.18,25.36-5.43,37.92-13,72.62-46.4,134.42-99.34,185.71-9.51,9.21-17.79,8.52-26.63-2.4q-62.24-76.93-124.37-154-30.44-37.69-60.93-75.34c-4.63-5.69-7.76-11.59-4.32-18.81s10.06-8.56,17.35-8.55q142.28.06,284.54,0c9.12,0,16,2.89,19.13,12.06ZM735.39,758c52.79-56.39,81.45-122.23,86.19-198.83H574.81Z" transform="translate(-147.63 -148)"/></svg>