<svg id="Layer_1" data-name="Layer 1" xmlns="http://www.w3.org/2000/svg" viewBox="0 0 694.27 694.28"><title>3</title><path d="M639.37,152.72H783.1c6.31,3.32,9.53,8.52,10,15.66.23,3.35,1.17,6.66,1.72,10q12.25,73.44,24.47,146.88c1.69,10.2-4.18,17-14.66,17.28-3.95.09-7.9,0-11.83,0-.12,2-.23,2.87-.23,3.77q0,103.68.11,207.36a16.82,16.82,0,0,0,2.81,8.65c17,25.8,34.18,51.47,51.31,77.18V783.24c-3.33,6.3-8.65,9.09-15.65,10.16-21.41,3.27-42.76,7-64.13,10.54-30.94,5.17-61.87,10.42-92.82,15.54-10.2,1.68-17-4.22-17.22-14.73-.08-3.78,0-7.56,0-11.76-1.91-.11-3.21-.24-4.51-.24-12.42,0-24.85.14-37.28-.1-8.15-.15-13.89-6.17-13.76-13.71.13-7.31,5.71-12.87,13.55-13.27,3.84-.19,7.68,0,11.53,0h30.11V684.26h-8.3c-68.7,0-137.39.08-206.08-.16a37,37,0,0,1-15.44-3.71c-25.37-12.32-50.5-25.11-75.73-37.71-2.57-1.28-5.22-2.4-7.83-3.59-.41.83-.76,1.21-.76,1.58-.06,8.81-.06,17.63-.09,26.44-.05,12.44-4.74,17.13-17.25,17.14q-54.23,0-108.46,0h-7.47c1.67,9.7,3.14,18.27,4.66,27.12H295.8c1.58,0,3.16,0,4.74,0,8.72.26,14.69,5.76,14.7,13.53s-6,13.49-14.67,13.53c-24.85.12-49.71,0-74.57,0h-7.68c1.65,9.7,3.1,18.28,4.6,27.12H231c23.27,0,46.54-.09,69.82,0,8.6.05,14.56,6,14.39,13.79-.17,7.52-6,13.11-14.3,13.22-13.55.17-27.11.05-40.67.06h-32.9c1.55,9.25,3,17.86,4.47,26.75,1.67.14,3,.35,4.29.35,37.28,0,74.56.07,111.85-.11a15.7,15.7,0,0,0,8-2.73c23.76-15.65,47.31-31.62,71.17-47.11a26.57,26.57,0,0,1,13.15-4.08c16.7-.48,33.43-.23,50.16-.18,9.81,0,16,5.39,16,13.6s-6.22,13.45-16.1,13.49c-14.46.06-28.93-.17-43.38.15a20,20,0,0,0-9.95,3c-23.62,15.45-47,31.29-70.62,46.72-3.42,2.23-7.82,4.15-11.78,4.18-44.29.29-88.58.22-132.86.15-8.66,0-13.5-4.18-14.92-12.63Q193.35,754.18,180,674c-1.63-9.82,4.33-16.6,14.44-16.87,4-.11,8,0,12,0,.17-1.74.32-2.61.32-3.48q0-104.07-.11-208.12c0-2.88-1.42-6.1-3.05-8.58-15.52-23.58-31.3-47-46.8-70.58-2-3.08-4-6.94-4.06-10.45-.27-45-.23-89.93-.13-134.9,0-7.76,4.43-12.71,12.09-14q80.46-13.53,161-26.88c9.49-1.58,16.33,4.31,16.69,13.95.16,4.18,0,8.38,0,12.64,2.13.1,3.24.21,4.35.21q103.38,0,206.76-.13a18.09,18.09,0,0,0,9.23-3.13C588.35,186.82,613.84,169.74,639.37,152.72ZM657,476.1c0-26.21-.13-52.41.13-78.62,0-4.55-1.45-6.73-5.43-8.69-29.54-14.54-58.93-29.38-88.45-44a21.27,21.27,0,0,0-9-2.17c-52.41-.13-104.82,0-157.23-.2-4.26,0-6.36,1.39-8.19,5.1-14.68,29.73-29.59,59.35-44.29,89.07A19.39,19.39,0,0,0,342.5,445c-.12,52.64,0,105.27-.19,157.91,0,4,1.38,5.94,4.83,7.65,29.92,14.8,59.74,29.82,89.66,44.63a19.65,19.65,0,0,0,8.37,1.92c52.41.11,104.82,0,157.23.19,4.27,0,6.35-1.43,8.17-5.13,14.48-29.33,29.24-58.52,43.65-87.88a27.44,27.44,0,0,0,2.65-11.56C657.1,527.15,657,501.62,657,476.1Zm110.6-295.77a21.26,21.26,0,0,0-2.73-.45c-38,0-75.91-.09-113.87.09-2.67,0-5.62,1.42-7.94,2.95-23.18,15.3-46.11,31-69.48,46a31.92,31.92,0,0,1-16.25,5c-68.91.33-137.82.22-206.73.22h-7.86v81.36H351c68.68,0,137.37-.08,206,.15a36.87,36.87,0,0,1,15.45,3.67c26,12.58,51.75,25.64,77.59,38.52,2,1,4.16,1.93,6.29,2.91a9.07,9.07,0,0,0,.55-1.55c0-8.82.05-17.63.08-26.44,0-12.55,4.67-17.25,17.11-17.26q54.23,0,108.46,0h7.61c-1.64-9.58-3.12-18.17-4.66-27.12h-7.85q-38.29,0-76.6,0c-10.55,0-16.77-5-16.9-13.37-.13-8.6,6.24-13.73,17.19-13.74q35.92,0,71.85,0H781c-1.59-9.55-3-18.17-4.52-27.12H702.14a40,40,0,0,1-6.76-.25,13.6,13.6,0,0,1-11.2-14.07c.42-7.25,6.07-12.67,14.06-12.72,22.14-.16,44.28-.07,66.42-.07H772C770.46,197.51,769.05,189.08,767.59,180.33ZM180.18,232a21.06,21.06,0,0,0-.44,2.74c0,38-.1,75.91.08,113.87,0,2.66,1.44,5.62,3,7.93,15.29,23.19,30.95,46.13,45.95,69.5a32,32,0,0,1,5,16.23c.33,68.91.22,137.82.22,206.73v7.62h81.36V647.9c0-68.68-.07-137.37.14-206a33.87,33.87,0,0,1,3.32-14.19c12.74-26.17,25.89-52.13,38.88-78.17,1-2.06,1.93-4.17,3.21-6.94-10.22,0-19.25,0-28.27,0-12.55,0-17.26-4.67-17.27-17.1q0-54.22,0-108.45v-7.62L288.17,214v7.86q0,38.3,0,76.59c0,10.52-5,16.78-13.36,16.9-8.57.13-13.73-6.29-13.74-17.2q0-35.93,0-71.84v-7.8l-27.12,4.52v73c0,1.81.06,3.62,0,5.42-.42,8.19-6.1,14-13.62,13.91s-13.34-5.85-13.4-14.09c-.16-22.14-.06-44.28-.07-66.43v-7.33ZM684.11,342.88v8.53c0,68.68.07,137.37-.15,206.06a35.28,35.28,0,0,1-3.47,14.82c-12.71,26.18-25.86,52.14-38.85,78.18-1,2-1.84,4-3.09,6.67h27.91c13,0,17.64,4.53,17.65,17.41q0,53.88,0,107.77v8l27.12-4.65c0-29,0-57.2,0-85.42,0-9.79,5.42-16,13.64-15.92s13.4,6.24,13.45,16.13c0,12.43,0,24.85,0,37.28v43.47l27.12-4.52v-8.25c0-23-.06-46.09,0-69.14,0-8.85,5.45-14.79,13.21-15,8-.19,13.77,5.93,13.84,15,.11,14.69,0,29.38,0,44.06v28.78l26.76-4.49c.14-1.72.34-3,.34-4.33,0-37.28.08-74.57-.1-111.84a15.72,15.72,0,0,0-2.75-8Q794.1,609,771,574.77a30.74,30.74,0,0,1-5.62-18.27c.19-68.46.11-136.92.11-205.38v-8.24ZM554.43,765.66a13.52,13.52,0,1,0,13,13.67A13.66,13.66,0,0,0,554.43,765.66Z" transform="translate(-152.56 -152.72)"/></svg>