<svg id="Layer_1" data-name="Layer 1" xmlns="http://www.w3.org/2000/svg" viewBox="0 0 872.32 756.51"><title>4</title><path d="M936.12,318c-15.81,20.24-31.82,40.33-47.41,60.75q-187.35,245.43-374.59,491c-8.9,11.68-19,11.81-27.79.29Q280.15,599.8,74,329.64c-2.41-3.16-5-6.22-7.16-9.51-4.29-6.38-4.16-12.77.82-18.74q71.91-86.31,143.84-172.62c5-6,11.18-6.73,18.27-6.73q230.7.13,461.41.07c27.24,0,54.49-.4,81.72.33,5.47.14,12.53,3.11,16,7.2,48.17,57,95.83,114.39,143.61,171.7,1.26,1.52,2.4,3.13,3.59,4.69Zm-590.29,8.66L499.16,812.05l2.07-.21q76.5-242.25,153.22-485.23Zm-237-.2C226.08,480,342.08,632,458.09,784a19.09,19.09,0,0,0-1-8.64q-42.6-135-85.23-269.89-27.13-85.92-54.29-171.81c-1.13-3.58-1.38-7.43-7.27-7.41C243.91,326.49,177.5,326.41,108.87,326.41Zm782.5,0c-67.48,0-132.75.11-198-.17-6.6,0-9.15,2.08-11.08,8.19q-60,191-120.45,381.77-10.59,33.54-21,67.1l1.38.72ZM501.09,160.78,366.2,295.57H635.88ZM249.62,152,327.4,285.25,460.68,152Zm500.75.41h-211l133.3,133.25Zm-528.48,9.74L110.69,295.54h189ZM700.56,295.51h189L778.35,162.13Z" transform="translate(-63.8 -122)"/></svg>