<svg id="Layer_1" data-name="Layer 1" xmlns="http://www.w3.org/2000/svg" viewBox="0 0 657.64 725.66"><title>5</title><path d="M717.65,137c5.73,4.73,12.15,8.84,17.08,14.29q57.25,63.32,114,127.09c14.9,16.73,14,38.88-1.6,53.18A35.83,35.83,0,0,1,822.6,341c-10.12.11-20.24,0-31.26,0v9.41q0,228.84,0,457.67c0,33-21.51,54.41-54.6,54.46-14.4,0-28.81,0-43.21,0-5.66,0-11.41.29-17-.57-26.49-4.1-43.92-25-43.92-52.51q-.06-176.76,0-353.52V341.07c-9.54,0-18.66-.14-27.78,0-17,.33-30-6.42-37-22.16-6.88-15.5-2.9-29.29,8.26-41.68,39-43.35,77.81-86.91,116.9-130.2,3.66-4.05,8.83-6.74,13.29-10.06ZM621.46,294.66c1.16.6,1.54,1,1.92,1,9.68.05,19.36.06,29,.1,16.34.06,25.48,9.08,25.52,25.33.06,22.2,0,44.4,0,66.6V806.35c0,10.2.69,10.89,10.85,10.89q22.66,0,45.34,0c11.49,0,11.83-.35,11.83-12.06v-481c0-20.73,7.79-28.42,28.77-28.43h28.7L712,193.69ZM417.21,636.06q0-86.07,0-172.12c0-33.54,21.31-54.81,54.87-54.84,17.23,0,34.47-.09,51.7,0,29.84.2,52.06,22.1,52.1,51.91q.18,174.94,0,349.9c0,29.41-22.28,51.38-51.65,51.63-18,.16-35.89.09-53.83,0-31.2-.11-53.13-21.91-53.16-53Q417.13,722.82,417.21,636.06Zm113.37.59q0-86,0-172.07c0-9.15-1-10.11-10.2-10.13-16.28,0-32.57.14-48.85-.07-6.2-.08-9,2.06-9,8.61q.13,172.77,0,345.54c0,6.42,2.52,8.87,8.85,8.79,16.28-.22,32.57-.06,48.86-.08,9.58,0,10.38-.83,10.39-10.65ZM360.52,693q0,57.38,0,114.73c0,33.53-21.36,54.85-54.86,54.88-17.23,0-34.47.1-51.7,0-29.84-.2-52.07-22.18-52.12-51.87q-.17-118.28,0-236.55c0-29.33,22.26-51.41,51.61-51.65,18.17-.14,36.35-.1,54.53,0,30.29.16,52.37,22,52.5,52.22C360.64,614.14,360.52,653.56,360.52,693Zm-45.35.29c0-38.7-.08-77.4.08-116.1,0-6.48-2-9.55-8.95-9.44-16.75.28-33.51.23-50.26,0-6.25-.08-9,2.18-9,8.67q.15,116.1,0,232.19c0,6.48,2.66,8.79,8.93,8.71,16.28-.21,32.56-.06,48.84-.08,9.51,0,10.32-.86,10.32-10.71Q315.18,749.91,315.17,693.27Z" transform="translate(-201.75 -137)"/></svg>