<svg id="Layer_1" data-name="Layer 1" xmlns="http://www.w3.org/2000/svg" viewBox="0 0 722.64 722.64"><title>2</title><path d="M765.09,861.64c-15.86-14.43-15.43-23.85,1.67-36.87,6.32-4.82,12.58-9.7,23-17.71H224.9c-28.36,0-31.52-3.09-31.52-30.86V210.14C185,221.06,179.69,228.05,174.31,235c-12.68,16.33-22.18,16.42-35.51.37V222.51C150,207.87,161,193,172.61,178.66,183.49,165.17,195,152.2,206.24,139h9.64c11.36,13.31,23.05,26.35,34,40,10.34,12.92,20.1,26.34,29.71,39.83,6.4,9,4.34,17.75-4,24s-17.4,4.72-24.22-3.35S238.42,222.71,230,211.62V770.86H788.52c-11.12-8.54-20-14.77-28.19-21.82-8-6.9-10-16.79-2.61-23.94,4.54-4.4,16.61-7.86,20.47-5.07,28.43,20.57,55.65,42.81,83.25,64.53v9.64c-4.79,4.84-9.14,10.25-14.46,14.41-22.86,17.88-46,35.39-69,53ZM337,536a54,54,0,1,0,54,54A54,54,0,0,0,337,536ZM482,411a54,54,0,1,0,54,54A54,54,0,0,0,482,411ZM627,519a54,54,0,1,0,54,54A54,54,0,0,0,627,519ZM771,320a54,54,0,1,0,54,54A54,54,0,0,0,771,320ZM466.18,503.35l-22.27-27L342.82,559.65l22.27,27Zm296.53-89.41-28.5-20.31-107.66,151L655.05,565ZM590.44,574.29l22-27.22L510.56,464.71l-22,27.22Z" transform="translate(-138.8 -139)"/></svg>