<svg id="Layer_1" data-name="Layer 1" xmlns="http://www.w3.org/2000/svg" viewBox="0 0 743.16 743.12"><title>6</title><path d="M871.26,322.49V667.93c-3.79,9.28-11.29,14.36-19.83,18.91q-169.5,90.23-338.82,180.8c-8.85,4.73-17.28,4.6-26.12-.16Q420.76,832.11,354.89,797q-105.46-56.31-211-112.49c-9.81-5.21-15.78-12.3-15.78-23.86q.08-165.79,0-331.58c0-9.38,4.48-16.06,12.39-20.6,2.92-1.68,6.1-2.9,9.1-4.44q104.54-53.34,209.05-106.72Q426.32,162.75,493.89,128H505.5q6.72,3.42,13.45,6.84Q684.55,219.5,850.21,304C859,308.52,867.11,313.05,871.26,322.49ZM476.07,808.7c.1-2.38.24-4,.24-5.59q0-137.88.15-275.77c0-5.19-2.35-7-6.29-9Q325.91,444.66,181.76,370.83c-2.07-1.06-4.21-2-6.92-3.27-.12,2.41-.26,4-.26,5.65q0,134.61-.12,269.24c0,4.64,1.78,6.66,5.6,8.7Q325,728.31,469.73,805.71C471.58,806.69,473.52,807.5,476.07,808.7Zm47,.14c2.07-.87,3.18-1.23,4.2-1.78q146.67-78.28,293.38-156.51c3.74-2,4.21-4.49,4.21-8.1q-.09-134.57-.07-269.12a55,55,0,0,0-.62-5.75c-42.85,21.93-85,43.42-127,65.22-2.07,1.07-3.85,4.77-3.91,7.3-.38,14.26-.18,28.53-.19,42.79q0,54.4,0,108.82c0,10.27-4.69,17.72-13.83,21.91s-17.54,2.31-24.92-4.17c-6.09-5.35-7.73-12.48-7.72-20.31q.09-60.93,0-121.87v-8.48c-1.85.76-2.72,1-3.52,1.46C604.43,480,565.79,499.92,527,519.48c-4.49,2.26-3.9,5.46-3.9,8.95q0,122.6,0,245.19ZM368.33,244.89c1.72,1,2.93,1.74,4.21,2.38q145.4,72.79,290.9,145.4c2.61,1.3,7.06,1.1,9.73-.25,39.25-19.76,78.35-39.84,117.47-59.87,1.79-.91,3.46-2.06,5.59-3.34-1.49-1-2.24-1.59-3.09-2Q649,253.47,504.86,179.67c-3.74-1.91-6.44-1.63-9.95.18q-60.26,30.93-120.63,61.64C372.4,242.45,370.61,243.58,368.33,244.89Zm248.1,176.79c-2.61-1.49-4-2.39-5.48-3.12Q466.23,346.1,321.39,273.84c-2.81-1.4-7.6-1.18-10.49.26-31.32,15.62-62.44,31.64-93.61,47.56-4.57,2.34-9.1,4.77-14.47,7.59,3.12,1.67,5.2,2.83,7.32,3.91q47.37,24.29,94.75,48.53,94.46,48.32,189,96.49c2.65,1.34,6.86,2.35,9.18,1.19C540.59,460.55,577.93,441.36,616.43,421.68Z" transform="translate(-128.1 -128)"/></svg>