<svg id="Layer_1" data-name="Layer 1" xmlns="http://www.w3.org/2000/svg" viewBox="0 0 678.27 781.07"><title>7</title><path d="M566.84,126c15.49,8.14,21.13,17.15,18.35,30.24a39.87,39.87,0,0,1-4.32,10.47c-15.14,27.87-30.4,55.69-46,84.17,15.76,10.41,27.25,24.16,32.42,42.59,5.09,18.16,3.24,35.69-5.11,53,1.51,1,2.93,1.91,4.38,2.81,11.32,7,15.7,20,10.7,31.7S560,397.86,547,395.4c-19.89-3.74-39.92-9-60-9.34-97.74-1.58-183,67.52-202.2,163.21-14.61,72.92-28.37,146-42.17,219.08-8.42,44.58,26.84,87.28,72.73,88,33,.53,66.09.07,99.14.18,17.35.05,29,13.56,26,29.89-2,10.74-10.94,20.08-21.92,20.09-39.88.05-80,2-119.59-1.69-67.73-6.25-118.42-75.36-106.2-142.31,14.07-77.15,27.38-154.53,44.84-230.93,19.55-85.59,73.25-144.32,154-178.39,1.83-.77,3.66-1.57,6.05-2.59-9.5-17.39-12.6-35.49-7.9-54.59s15.86-33.77,33-44.85c-1.31-2.57-2.46-5-3.75-7.36q-20.65-37.76-41.33-75.49c-10.9-19.95-6.78-32.6,13.75-42.32ZM478.51,335.15v0c6.61,0,13.22.19,19.82,0,11.45-.4,20.49-9,21.29-19.93.83-11.37-6.26-22.15-17.56-23a300.2,300.2,0,0,0-46.36,0c-11.37.89-18.37,11.62-17.45,23.05a21.28,21.28,0,0,0,20.44,19.87C465.28,335.41,471.9,335.15,478.51,335.15ZM439.69,176.61c11.48,21,22.32,40.95,33.39,60.81,2.86,5.13,8.82,4.86,11.83-.42,5.27-9.24,10.28-18.63,15.39-28,5.79-10.57,11.57-21.15,17.74-32.43ZM387.55,666.23c-.43-132.42,108-241,240.83-241.19,132.43-.14,240.2,107.38,240.83,240.27.62,132.66-107.37,241.21-240.3,241.52C496.17,907.14,388,799.3,387.55,666.23Zm50.44-.39c-.18,104.66,85.08,190.3,189.76,190.62,105.2.32,190.7-84.69,191.07-190,.37-105.06-85-190.9-190.05-191.06S438.16,560.7,438,665.84Zm144.12,81.69c1.74-.88,3-2.66,4.47-4.1q59.79-59.76,119.61-119.49c6.26-6.24,10.39-13.27,9.41-22.27-1.15-10.48-6.7-18-16.83-21.46-10.41-3.55-19.38-.76-27.08,6.95q-47.9,48-95.85,95.86c-9.51,9.51-19.26,18.82-28.38,28.7-7.21,7.81-8.37,17.17-3.81,26.87S556,753,567.25,754.3C572.22,752.07,577.26,750,582.11,747.53Zm64.62-19.33c.06,18.23,15.43,33.53,33.6,33.44A33.46,33.46,0,0,0,713.52,728a33,33,0,0,0-33.41-33.22A33.46,33.46,0,0,0,646.73,728.2ZM610,604a33.33,33.33,0,1,0-33.5,33.12A33,33,0,0,0,610,604Z" transform="translate(-190.94 -126)"/></svg>