<svg id="Layer_1" data-name="Layer 1" xmlns="http://www.w3.org/2000/svg" viewBox="0 0 736.16 732.01"><title>8</title><path d="M868,183.29V775.68c-.52,2-1.2,4.05-1.53,6.12-4,24.74-14,46.68-30.61,65.41-28.47,32.06-64.76,44.46-107,44.33-153.81-.48-307.61-.21-461.42-.35a194.65,194.65,0,0,1-27.08-1.85c-54.73-7.78-101.18-54.22-106.68-109-2.67-26.59-1.5-53.58-1.75-80.39-.19-19.79,10.79-30.57,30.65-30.62q40.25-.08,80.5,0h8V659q0-233.22-.09-466.45c0-13.12,3.75-23.75,16.25-29.36s23.1-1,32.73,7.66c16.71,15.09,33.68,29.9,50.55,44.81,7,6.15,13.95,12.27,21.14,18.59,2.19-1.85,4-3.32,5.8-4.89,22.68-20.27,45.3-40.62,68.06-60.81,13.5-12,27-11.86,40.45.09q21.47,19.11,42.86,38.32c10.15,9.06,20.31,18.1,30.64,27.3,2.42-2.1,4.43-3.78,6.38-5.52Q599,199,632.23,169.32c14.57-13,27.42-13.08,42.06-.08,20.78,18.45,41.43,37,62.15,55.57,3.52,3.14,7.08,6.25,10.8,9.54,4-3.49,7.38-6.46,10.78-9.46,21-18.58,41.92-37.22,63-55.7,11.7-10.27,25.24-11.81,35.85-2.77C861.78,170.63,864.36,177.58,868,183.29ZM305.54,669.35h8.95q159.2,0,318.39,0c20.49,0,31,10.51,31.11,30.84,0,20.85-.37,41.7.12,62.53,1.15,49.17,46.31,83.88,93.36,72,31.79-8,56.59-38.45,56.48-75.65-.5-167.46-.21-334.93-.23-502.39,0-2.28-.23-4.56-.42-8-2.82,2.3-4.83,3.83-6.72,5.5-13.11,11.58-26.16,23.22-39.3,34.77-13.35,11.74-27.18,11.67-40.49-.19Q705.85,270.11,685,251.38c-10.5-9.38-21-18.74-31.72-28.28-24.37,21.78-48.25,43.21-72.23,64.53-15.3,13.6-27.94,13.58-43.16,0q-33.81-30.11-67.53-60.32c-1.54-1.38-3.24-2.58-4.92-3.91-1.47,1.23-2.58,2.12-3.64,3.07Q427,257.62,392.14,288.75c-13.17,11.74-26.92,11.94-39.93.65-4.88-4.24-9.68-8.58-14.53-12.85-10.38-9.15-20.77-18.29-32.14-28.28ZM187,723.94c0,17.24-.76,34,.26,50.6.74,12.11,6.56,22.92,14,32.56,16.61,21.57,38.92,30.34,65.76,30.29q179.33-.3,358.65-.09h9.12c-27-34.68-25.49-74-24.55-113.36ZM572.36,581.77c44.79,0,89.58.09,134.37-.12,13.84-.06,24.63-9.83,26.31-22.78,1.8-13.86-5.94-26.35-19-29.83-4.32-1.14-9-1.18-13.53-1.18q-140.47-.11-281,0a90.42,90.42,0,0,0-9.32.36,26.68,26.68,0,0,0-23.84,25.46c-.61,16.1,11.32,28,28.64,28.08,48.14.12,96.29,0,144.43,0ZM496.91,455.48c26.09,0,52.18,0,78.27-.06,4.27,0,8.71-.11,12.77-1.24a26.36,26.36,0,0,0,19-28.51c-1.69-13.57-11.77-23.58-25.29-23.88-20.09-.44-40.2-.21-60.31-.22-35.42,0-70.85-.07-106.27,0-13.23,0-23,6.52-27.07,17.42a26.67,26.67,0,0,0,24.9,36.24c28,.51,56,.13,84,.13Z" transform="translate(-131.84 -159.53)"/></svg>