<svg id="Layer_1" data-name="Layer 1" xmlns="http://www.w3.org/2000/svg" viewBox="0 0 784.7 781.76"><title>9</title><path d="M892,512.14V732.87a11.83,11.83,0,0,0-1,2.06c-10.2,39.22-34,57.72-74.36,57.72H596.24c0,8.93,0,16.58,0,24.24,0,44.82-29,73.85-73.71,73.86q-170.83,0-341.68,0c-44.32,0-73.49-29.1-73.5-73.31q0-317.61,0-635.21c0-44.14,29.24-73.21,73.58-73.22q170.84,0,341.68,0c44.75,0,73.62,29,73.63,73.93q0,129.87,0,259.75v9.67H606c71.76,0,143.52-.14,215.28.07,30.59.09,52.47,14.52,65.23,42.3C889,500.22,890.22,506.32,892,512.14Zm-738.72-13q0,159.36,0,318.72c0,18,8.85,26.93,26.68,26.93q171.6,0,343.19,0c18.32,0,27.06-8.83,27.06-27.32q0-317.57,0-635.14c0-18.5-8.73-27.3-27.07-27.3H180.76c-18.88,0-27.44,8.64-27.44,27.69Q153.31,340.9,153.31,499.11Zm443.3,247.56h7.32q107.66,0,215.31,0,26.81,0,26.8-26.82,0-57.87,0-115.72v-7.29H596.61Zm0-196.76H846.05c0-8.45,0-16.35,0-24.24,0-18.51-8.74-27.31-27.08-27.32q-107.26,0-214.54,0h-7.82ZM353.08,207.11q59.35,0,118.7,0c17.36,0,26.35,9,26.36,26.45q0,94.59,0,189.18c0,17.45-9,26.53-26.28,26.54q-119.46,0-238.93,0c-16.83,0-26-9.18-26-26.07q0-95,0-189.95c0-16.95,9.08-26.12,25.88-26.14Q293,207.06,353.08,207.11Zm98.75,46.52H253.54V402.91H451.83ZM277.38,549a22.92,22.92,0,1,0-22.78,22.91A23,23,0,0,0,277.38,549Zm52.23,0a22.95,22.95,0,1,0,22.75-23A23.06,23.06,0,0,0,329.61,548.93Zm121.45-23a23,23,0,1,0,22.5,23.18A23.11,23.11,0,0,0,451.06,526ZM231.55,646.9a22.92,22.92,0,1,0,22.86-22.84A23,23,0,0,0,231.55,646.9Zm144,.22A22.95,22.95,0,1,0,352.64,670,23.11,23.11,0,0,0,375.5,647.12Zm52.22-.21a22.92,22.92,0,1,0,22.82-22.85A23.05,23.05,0,0,0,427.72,646.91ZM253.18,768a23,23,0,1,0-21.62-24A23.14,23.14,0,0,0,253.18,768Zm99.17-45.88a23,23,0,1,0,23.13,22.58A23.11,23.11,0,0,0,352.35,722.16Zm98.74,0a23,23,0,1,0,22.46,23.2A23.12,23.12,0,0,0,451.09,722.16Z" transform="translate(-107.33 -109)"/></svg>