<svg id="Layer_1" data-name="Layer 1" xmlns="http://www.w3.org/2000/svg" viewBox="0 0 743.71 743.89"><title>10</title><path d="M876.54,398.25c-4.33,7.8-10.87,10.39-19.79,10.31-40.91-.34-81.82-.08-122.73-.24-4.52,0-7.31,1.21-10.17,5-18.42,24.2-41.28,42-71.92,47.94-5.43,1-11.19,1.88-16.58,1.17-8.18-1.07-13.27,2.36-18.73,7.88q-67.49,68.07-135.46,135.66c-10.6,10.6-17.76,10.58-28.33,0L184.74,338c-12-12-12-17.47.2-29.62q75.48-75.48,151-150.91c3.72-3.71,7.9-7,11.86-10.44h8.72c3.85,3.24,7.93,6.24,11.5,9.76,13.45,13.25,26.62,26.77,40.19,39.89,1.77,1.7,5.68,2.93,7.86,2.19,18.76-6.36,37.56-12.69,55.93-20.06,33.81-13.56,67.12-12.56,99.91,2.55,20.39,9.4,40.38,19.71,60.34,30,14.39,7.42,28.27,15.81,42.68,23.17a64,64,0,0,0,30.48,6.9c2.62-14.86,6-18,19.2-18.06,4.36,0,8.72,0,13.07,0h23.48c0-3.34,0-5.49,0-7.63.17-15.11,4.48-19.43,19.5-19.44,25.41,0,50.82.27,76.23-.15,8.92-.15,15.53,2.34,19.63,10.42Zm-441.29-175a26.66,26.66,0,0,0,2.08,2.72c16.41,16.45,32.79,32.93,49.35,49.22a18.88,18.88,0,0,0,7.45,4.07c24.6,7.92,49.26,15.67,73.9,23.5,8.51,2.71,17.12,5.2,25.46,8.38,7.46,2.83,10.7,10.42,8.39,17.83-2.12,6.8-9.19,10.94-16.68,9.58a57.29,57.29,0,0,1-6.94-2q-61.51-19.46-123-38.87c-13.51-4.23-26.6.76-33.39,12.18s-5.36,25.52,5.23,35A58.21,58.21,0,0,0,446.21,356c35.54,12.51,71.38,24.2,106.92,36.72,5.32,1.87,10.44,5.89,14.25,10.16,22.8,25.54,51.2,35.54,84.27,28.43,23.6-5.07,40-21.66,53.08-41.33a11.75,11.75,0,0,0,1.43-6.19c.08-35.58,0-71.15.14-106.73,0-4.5-1.16-6.38-6-6.71-17.62-1.23-33.88-6.88-49.48-15.21-30.68-16.39-61.4-32.77-92.63-48.07-21.42-10.48-44.33-11.89-67.12-4.29C472.54,209,454.34,216.19,435.25,223.22ZM490,401.82c-1.18,3.23-2,5.7-3,8.14-13.09,34.49-49.39,57.2-84.78,53-39.72-4.66-70.37-34-74.67-71.52-4.48-39.09,16.65-75,52.88-88,9.23-3.3,16.11-7.48,21.79-15.68,8-11.56,20.59-17.13,33.51-20.17L405.19,237c.83-.09.54-.14.35,0C370.9,258.54,336.09,259.62,301,238.1a5.2,5.2,0,0,0-4.86.45c-10.4,10.07-20.6,20.36-30.71,30.45,23,36.47,22.9,72.34,1.1,106.87L414.58,524a90.07,90.07,0,0,1,52.92-16.36,91.81,91.81,0,0,1,53,17l33.13-33.17c-14.85-21.85-20.11-46.27-15.09-73.19ZM846.94,379V225.78H790.73V379ZM461.29,391.79c-32.51-9.54-65.09-19.81-72.18-60-22.53,7.3-36.88,33.81-32.32,58.79,4.65,25.43,28,44.39,53.89,43.8C435.44,433.79,458.73,414.59,461.29,391.79Zm274.53-139V378.86h24.92v-126ZM498.19,545.55c-16.4-12-46.23-12-62.57.14l31.24,31.19ZM211.84,323.78c1.21,1.28,2.65,2.87,4.16,4.39q13.75,13.89,27.58,27.81c13.1-17.17,13.1-48.53.63-64.49Zm140.93-139.5-31.6,31.43c16.45,11.91,47.94,11.73,62.57-.45ZM566.65,442.05l-1.72.72c2.94,9.26,5.87,18.51,8.5,26.82l16.58-15ZM303.88,818.14c-2.43,15.45-6,18.51-21.09,18.51H248.17c0,4.18.16,7.93,0,11.66-.47,9.59-5.44,15.08-14.93,15.15q-42.84.36-85.68,0c-9.36-.1-14.62-5.92-14.63-15.42q-.14-90.39,0-180.79c0-10.66,6.07-15.75,18.17-15.76,40.42-.05,80.85-.19,121.27.14,6.73.06,10.79-1.9,15-7.28,18.39-23.58,41.17-41.53,71.55-45.72,39.69-5.48,73.93,6.71,101.94,35.8a29.82,29.82,0,0,0,11,7.46C504,653,536.26,664,568.63,674.63c22.49,7.36,40.24,19.75,49.24,43.27,16.69-4.55,33.17-9,49.62-13.54q28.65-7.92,57.25-16c12.06-3.41,24.28-4.61,36.57-1.79,40.64,9.3,57.52,58,31.42,90.66a76.2,76.2,0,0,1-34.37,24.61Q644.78,842.58,531.2,883.38c-31.11,11.14-62.15,10-91.75-4.15-32-15.32-63.27-32.29-94.65-48.92C332,823.52,318.82,818.79,303.88,818.14Zm-.71-29.24c23.86,1,44.32,9.52,64.29,20.58,27,15,54.64,29,82.33,42.75a87.83,87.83,0,0,0,57.95,7.52c8.68-1.79,17-5.31,25.44-8.31q107.49-38.41,215-76.92c9.38-3.35,17.34-8.66,23-16.9,11.78-17.22,1.72-40.41-18.94-43A47.36,47.36,0,0,0,734.32,716q-54.95,14.79-109.64,30.48a11.34,11.34,0,0,0-6.54,6.22c-11.28,31.71-41.64,47.07-73.92,36.94-23.06-7.23-46.06-14.62-69.09-21.92-19.12-6.05-38.28-12-57.36-18.16-7.66-2.49-11.37-8-10.87-15.21.46-6.58,5-12.12,11.63-13a26,26,0,0,1,10.58,1.39c21.47,6.64,42.86,13.49,64.28,20.29,20.26,6.43,40.47,13,60.79,19.29,13.43,4.12,26.59-1,33.36-12.31s5.36-25.62-5.27-35a63.35,63.35,0,0,0-20.48-11.69c-35.31-12.46-70.91-24.09-106.24-36.49a32.82,32.82,0,0,1-13.13-9.31c-22.08-25.44-50-35.53-82.6-29.51-24.64,4.56-41.67,21.52-55.14,41.88-1.43,2.17-1.44,5.53-1.45,8.34-.1,25.16-.06,50.33-.06,75.5Zm-84.63,45.41V681H162.38V834.31Zm30.35-153.48V807.21h24.7V680.83ZM641,326.57a14.33,14.33,0,1,0-1.33,28.61A14.32,14.32,0,0,0,641,326.57ZM383.77,719.49a14.6,14.6,0,0,0-13.84-14.86,14.16,14.16,0,0,0-15,14.22,14.58,14.58,0,0,0,14,14.68C376.53,733.72,383.43,727.18,383.77,719.49Z" transform="translate(-132.83 -147)"/></svg>