<svg id="Layer_1" data-name="Layer 1" xmlns="http://www.w3.org/2000/svg" viewBox="0 0 740.4 688.82"><title>12</title><path d="M752,426.27c20.8,57,22.37,113.51,5.34,170.42,71.43,15.59,113,57.54,115.23,131.45,1.61,53.65-34.1,102-84.2,120.57-51.17,19-112.31,4.85-150.37-44.85-12.25,4.39-24.5,9.2-37,13.19a299,299,0,0,1-87.78,13.84c-11.05.14-16.8-4.39-16.74-13,.06-8.31,5.53-12.76,16.14-12.92,37.18-.57,73-7.72,107.24-22.35,1.44-.62,2.78-1.45,4.26-2.24l-8.06-24q-113.42,48-225.37-5.67c-1,3.17-1.86,5.84-2.57,8.57a130,130,0,0,1-134.34,97.5C191.44,852.63,140,803.78,133.42,741.51c-3.77-35.45,5.39-67.64,27.87-95.54,3.75-4.65,4.25-8.39,2.43-13.8a343.36,343.36,0,0,1-18-111.6c0-8.52,4.88-14,12.2-14.35s12.8,5,13.62,13.2c.3,3,.18,6,.23,8.92A326.28,326.28,0,0,0,185,613.84c.6,2.06,1.39,4.07,2.4,7A135.72,135.72,0,0,1,261.26,597a269,269,0,0,1-11.6-86c.82-28.87,6.7-56.7,16.3-83.5-11.32-4.09-22.52-7.25-32.95-12.07-51.1-23.58-81.82-80.23-73.36-134.38C169,221.36,213.1,176.89,271.27,169.81c50.12-6.1,90.72,11.82,121.43,51.63,4.28,5.54,7.5,5.8,13.32,3.68a299.63,299.63,0,0,1,99.31-17.71c10.66-.13,17,4.87,16.89,13.09-.12,7.91-6.17,12.72-16.42,12.86A283.49,283.49,0,0,0,410,251.15c2.24,8.24,4.4,16.16,6.78,24.94,61.52-22.24,122.94-22.5,185,.11,1-4.06,1.8-7.65,2.74-11.21,16.15-60.7,74.36-101.89,136.05-96.3,63.5,5.75,112.8,54.79,118.66,117.83a126.56,126.56,0,0,1-16,74.94c-2.56,4.6-2.61,8.09-.57,12.73C864,422.44,873.69,473,873,525.69a63.59,63.59,0,0,1-.27,6.48c-1,8.19-6.63,13.41-13.84,12.89-7-.5-11.55-5.85-11.94-13.86-.89-18.36-1-36.8-2.87-55.05-3-29.14-10.79-57.21-22.51-85.47C801.79,409.2,779.34,421.28,752,426.27ZM288.17,194.36c-57.07-.06-103.31,46.39-103.49,104-.17,57.08,46.56,103.93,103.61,103.88A104.22,104.22,0,0,0,392.41,298.63C392.67,241.26,345.85,194.43,288.17,194.36ZM743.34,623.1a103.91,103.91,0,1,0-.13,207.82c57,.07,103.56-46.48,103.88-103.83C847.4,670.45,800.12,623.06,743.34,623.1ZM158.72,727A103.73,103.73,0,0,0,262.21,831c56.83.24,104.14-46.73,104.25-103.52.1-57.16-46.54-104.23-103.38-104.33A103.68,103.68,0,0,0,158.72,727ZM626.35,298.44a103.74,103.74,0,0,0,104.5,103.78c56.37-.18,103.29-47.3,103.25-103.71-.05-57.22-46.68-104.12-103.58-104.15A103.71,103.71,0,0,0,626.35,298.44ZM275.88,505.5H417.55c2.32-30.28,4.59-59.84,6.88-89.73a10.54,10.54,0,0,0-2.55-.5q-36.87-.06-73.74,0a23.27,23.27,0,0,0-5.47,1.09C327.85,420.19,313,424,298.25,428c-2.21.6-5.08,2.2-5.86,4.08A223.18,223.18,0,0,0,275.88,505.5Zm325,.25H742.38c-1-26.33-6.93-51-16.82-74.85-.64-1.54-3.71-2.49-5.81-2.95-9.73-2.16-20.18-2.53-29.14-6.39-14.2-6.11-28.6-6.61-43.47-6.4-17.78.25-35.56.06-53.06.06ZM450.59,415.59c-2.36,30.54-4.66,60.24-7,90.06H575c-2.41-30.39-4.78-60.16-7.15-90.06ZM423,610.1c-1.77-26.24-3.49-51.69-5.23-77.47H275.9A219.91,219.91,0,0,0,289,597c.59,1.61,2.79,3.05,4.56,3.74,17.42,6.85,35.16,11.1,54.26,9.53,13.41-1.1,27-.21,40.5-.21ZM742.36,533H600.63c-1.72,26.06-3.4,51.29-5.11,77.11,29.87,0,59.3,0,88.73-.06,1.8,0,3.6-.9,5.39-1.41,11.63-3.35,23.31-6.55,34.84-10.19,2.4-.76,5.44-2.76,6.19-4.9A201.51,201.51,0,0,0,742.36,533Zm-167.67-.36H443.78c1.82,26,3.6,51.44,5.4,77.14H569.31C571.09,584.22,572.87,558.77,574.69,532.61ZM564.63,636.43H453.69c7.74,37,14.79,73.59,37.43,104.69a37.69,37.69,0,0,0,5.56,5.88c9,7.94,16.67,8.43,24.91-.17a100,100,0,0,0,16.08-22.14C552.19,697.17,559,667.18,564.63,636.43ZM563.3,389c-5.54-18.68-9.65-36.63-16.29-53.58a177,177,0,0,0-21.33-39.61c-10.63-14.57-22-14.17-33.2-.12C470.85,322.84,463.89,355.8,456.2,389ZM463.37,748.33c-4.55-9.53-9.74-17.69-12.45-26.61-8-26.3-14.92-52.91-22.49-79.34-.67-2.33-2.9-6-4.47-6-22.29-.39-44.6-.26-68.56-.26C377.49,660.23,389.63,687,392.09,718a8.28,8.28,0,0,0,3.79,5.53A224.57,224.57,0,0,0,463.37,748.33ZM649.74,636.58h-58.6c-7.22,38.75-16.06,76.51-35.48,111.74,14.4-3.64,28.27-8.38,42.25-12.73,10.67-3.32,18.58-8.24,15.93-21.4-.35-1.75.4-3.73.68-5.6C618.49,681.33,630.19,657.76,649.74,636.58ZM637.15,389.23c-22.25-24.4-34.47-51.13-36.66-82.25-.1-1.35-1.11-3.42-2.17-3.79-14-4.84-28.06-9.43-42.11-14.08,15.9,31.05,24.77,62.64,31.7,95,.43,2,3.49,4.87,5.4,4.93C607.28,389.42,621.27,389.23,637.15,389.23ZM463.34,291.12l-1.33-1.9c-12.52,4-25,8.25-37.59,12-5,1.49-6.53,4.44-6.95,9.32-2.37,28.13-13.42,52.6-31.84,73.85a52.14,52.14,0,0,0-3.1,4.49h47.13C436.81,354.67,445.54,321.34,463.34,291.12Zm-152.09,6.45c-9.73-6.35-19.48-12.66-29.33-18.82-4.55-2.86-8.41-6.95-5.62-11.8,2-3.52,7.09-6.47,11.27-7.29,7.48-1.47,12.2,2.86,14.18,10.86,1.89,7.62,7.79,12,14.63,10.8S329,273.76,327,266.64c-2.15-7.78-4.92-17.14-10.67-21.78-9.28-7.49-17.13-13.39-15.78-27.2.65-6.58-6.05-10.74-13.19-10.11s-11.21,5-11.69,12.24c-.21,3.23.56,6.67-.31,9.68-.82,2.85-2.57,6.39-5,7.67-26.79,14.31-28.5,46.36-3.11,63,9.72,6.37,19.66,12.41,29.22,19,7.51,5.17,6.34,13.3-2.07,16.86-8.74,3.7-16.72-.24-19.16-9.46-2.09-7.9-7.61-12.25-14.4-11.35-7.38,1-11.63,6.69-11.15,15.23.57,10.08,4.68,19.3,13.29,23.82,10.25,5.38,13.87,12.14,12.93,23.34-.57,6.76,4.69,10.86,11.33,11.48s11.58-2.79,13.31-9.36a35.3,35.3,0,0,0,.83-11.24c-.34-4.91,1.09-7.69,5.89-9.91,12.94-6,19.28-16.76,20.18-30.86C327.11,314.9,322.09,304.63,311.25,297.57ZM751.78,675.18c10.35-1.06,16.05-6,15.62-13.75-.45-8.21-7.23-12.91-17.69-12.22a46,46,0,0,0-4.82.6c-25.36,4.44-42.32,19.18-52,42.71-9.92,1.73-24.33-3.85-25.57,12.56-1.15,15.23,12.11,13.36,22.28,14.39,0,4.13,0,7.61,0,11.09a35.58,35.58,0,0,1-.44,3.76c-18.27,2.7-22.51,5.51-22.15,14.42s4.93,11.28,25.84,12.79c1.2,2.53,2.34,5.26,3.74,7.85,11.95,22,30.42,33.89,55.36,35.46,8.81.56,14.87-4.52,15.44-12s-5.06-13-13.76-13.85a46,46,0,0,1-5.64-.57c-10.43-2.28-19.27-6.9-25.79-17.28,5.87,0,10.19.11,14.51,0,8.7-.26,14.57-5.65,14.47-13.14s-6-12.62-14.8-12.78c-6.69-.13-13.38,0-20.16,0V718.88c7.6,0,14.6.21,21.59-.06,7.73-.3,13.14-5.61,13.37-12.56.23-7.19-5.43-12.9-13.47-13.28-4.75-.22-9.52,0-15.54,0C729.81,681.32,739.75,676.42,751.78,675.18Zm-520.85,79c-6.34,4.44-11.63,10.49-16.91,16.27a12.63,12.63,0,0,0,.27,17.6c4.88,5,11.77,5.36,17.57.67,2.93-2.37,5.49-5.21,8.18-7.87,10.69-10.62,11.38-10.81,23.9-2.48,11.74,7.8,24.6,10.54,36.7,3.27,9.26-5.57,17.13-13.9,24.5-22,4.46-4.93,2.86-11.41-2.14-16s-10.79-4.84-16.29-.8c-2.81,2.06-5.15,4.77-7.64,7.25-11.9,11.86-11.89,11.86-26.45,2.88a23.23,23.23,0,0,0-4.94-2.77c-5.45-1.69-6.11-5.06-4.13-9.91,10-.74,23.58,2.67,24.35-12.13.9-17.42-14.63-13.11-25.31-14.43,0-8.33-.1-15.89,0-23.44.14-8.92,4.33-14.29,11.51-15.05,7.36-.78,12.72,4.12,14.46,13.21,1.69,8.89,7.4,13.7,14.81,12.48s11.79-7.9,10.84-16.45c-2.31-20.93-19.66-36-40.5-35.27-20.59.76-36.55,17.33-37.07,38.68-.2,8.57,0,17.15,0,25.56-22.07,2.34-26.52,4.53-25.78,13.74,1.33,16.56,15,11.84,25.17,13.29C237.49,746.79,236.1,750.51,230.93,754.13ZM768.22,311.22c8.13-.23,13.79-5.75,13.8-12.94,0-6.9-5.3-12.2-13-12.94-1.78-.17-3.58-.2-7.49-.39,9.23-9.12,17.25-17,25.19-24.91,9.47-9.44,10.78-16.57,4.32-22.89s-13.34-4.84-22.83,4.66C755.64,254.39,743.08,267,729,281.06c-2.26-3.15-3.72-5.85-5.79-7.95-11.58-11.75-23.17-23.48-35-34.94C680.82,231,671.26,232,667,240c-3.36,6.33-1.75,12,3.33,16.82,9.25,8.88,18.44,17.82,28.69,27.74-3.13.48-3.91.67-4.69.71-10.77.53-16,4.8-15.94,13.07q.06,12.86,16.89,12.93c7.17,0,14.35,0,21.48,0v13c-7.43,0-14.4,0-21.37,0-11.28,0-16.9,4.29-17,12.8s5.57,13.12,16.64,13.17c7.2,0,14.39,0,21.76,0,1.39,11-2.94,25.66,13.45,25.5,16-.16,12.06-14.69,13.37-24.49.81-.4,1.28-.83,1.76-.83,6.75-.1,13.51-.12,20.26-.19,10.16-.09,16.28-4.89,16.41-12.82s-6-13.06-16.06-13.14c-7.47-.07-14.94,0-22.55,0v-13C752.12,311.27,760.18,311.44,768.22,311.22Z" transform="translate(-132.6 -168.18)"/></svg>