<svg id="Layer_1" data-name="Layer 1" xmlns="http://www.w3.org/2000/svg" viewBox="0 0 587.55 702.17"><title>13</title><path d="M505.23,851q-17.73-1.34-35.46-2.65c-49.56-3.63-98.54-10.59-145.85-26.41-21.72-7.27-42.71-16.23-59.82-32.22-25.66-24-24.28-57.15,3.09-79.41,17.12-13.94,36.88-22.62,57.54-29.51,36.56-12.19,74.3-18.74,112.47-23.17,2-.23,3.95-.6,7-1.07-1.77-2.92-3.05-5.19-4.45-7.37C405.06,595.41,372.56,540.4,348.29,481c-14.37-35.19-26.88-71.21-26.92-109.73-.07-81.48,34.68-144.87,102.94-189.09,42.12-27.28,89.06-37.47,138.8-31.83,61.29,6.94,111.31,35.14,149.22,83.91,32.84,42.24,47.63,90.51,45.23,143.86-1.13,25-7.58,49.15-15.57,72.77-16.3,48.22-39.38,93.29-65.08,137.06-12.36,21.06-25.6,41.61-38.43,62.4-1.07,1.73-2.05,3.5-3.7,6.32,10.08,1.3,19.47,2.34,28.8,3.76,42.52,6.49,84.62,14.59,123.57,34,15.05,7.49,28.92,16.68,38.23,31.26,12.87,20.15,9.74,44.32-7.42,61.28-16.86,16.69-37.73,26.31-59.62,33.88-47.83,16.54-97.49,23.59-147.71,27.46-12.28,1-24.55,1.82-36.83,2.72Zm33.84-135.77c1.93-2.42,3-3.58,3.86-4.86,24.89-36.37,50.68-72.16,74.41-109.27,32.5-50.82,61.57-103.59,81.66-160.8,7.42-21.14,13.61-42.72,14.59-65.24,1.87-43.22-10.31-82.4-37.69-115.89-40.82-49.93-94.14-72-158.17-64.57-51,5.9-91.59,31.27-121.12,73.22-24.57,34.9-35,74-30.26,116.65,3.3,29.5,13.19,57.28,24.66,84.46,25.3,60,58.65,115.54,94.65,169.54C502.74,664.09,520.81,689.05,539.07,715.23Zm12.11,92c16.51-1,44.61-2,72.59-4.42,40.11-3.42,79.75-9.9,118-22.93,15.16-5.16,30.08-11,42.38-21.72,6.52-5.69,7-8.15.15-12.78-10.31-7-21-14-32.51-18.44C706.21,709.42,658.22,703,609.87,699c-2.22-.18-5.41,1.93-6.91,3.92-14.69,19.53-29,39.39-43.67,58.9-12,15.87-27.63,15.82-39.64-.12q-21.87-29-43-58.51c-2.68-3.72-5.38-4.92-9.67-4.28-30.91,4.67-62,8.31-92.69,14.11-24.88,4.7-49.59,11.54-71.09,25.65-17.78,11.67-18,15,.24,25.36,15.88,9,33.44,15.88,51,21C414.86,802.37,477.08,806.23,551.18,807.24Zm90.41-439.87c0,56.13-45.77,102.08-101.89,102.23S437,423.2,437.45,367.06a102.07,102.07,0,0,1,204.14.31Zm-44.21.05c0-31.78-26.14-58-57.84-58.07s-57.87,26.24-57.89,58,26.15,58,57.84,58.09S597.37,399.17,597.38,367.42Z" transform="translate(-245.73 -148.83)"/></svg>