<svg id="Layer_1" data-name="Layer 1" xmlns="http://www.w3.org/2000/svg" viewBox="0 0 735.71 735.86"><title>3</title><path d="M868,599.13c-1.15,4.83-2.14,9.72-3.49,14.5-4.73,16.71-13.56,30.93-25.87,43.2-43.6,43.42-87,87-130.68,130.39-3.92,3.9-5.51,7.74-5.3,13.16.38,9.8.15,19.63.1,29.44-.14,22.7-15.2,37.89-37.83,37.92-48.61.07-97.24.92-145.82-.3-30.21-.76-60.34,1.24-90.53.49s-60.34-.16-90.51-.17c-26.08,0-40.42-14.33-40.51-40.3,0-11.71,2.84-24.7-1.3-34.78-4-9.82-15.28-16.69-23.4-24.82Q217.51,712.5,162.09,657.19c-20.11-20-29.91-43.82-29.79-72.13.3-76.85.27-153.71.5-230.56.1-33.13,19.44-59.32,49.07-67,41.67-10.82,81.76,19.69,82.43,63.28.5,32.08.12,64.16.13,96.25v8.16c4.09.28,7.62.37,11.11.79a63.84,63.84,0,0,1,38.55,18.87c17.09,17.11,34.33,34.07,51.21,51.38,4.1,4.22,8.17,5.66,13.93,5A241.59,241.59,0,0,1,405,529.58c19.34-.21,35.93,6.65,50,20,15.41,14.69,31,29.19,45.39,42.7,7.71-7,17.31-15.54,26.65-24.34,7-6.56,13.4-13.71,20.47-20.16,14.49-13.23,31.71-19.16,51.33-18.09,5.26.28,10.7-.25,15.74.94,11.19,2.62,18.67-1.73,26.1-9.86,13.25-14.46,27.88-27.65,41.4-41.88,14.45-15.2,31.51-23.82,53.88-23.37v-7.72c0-32.32-.38-64.65.15-97,.41-25.43,11.88-45.3,34.38-57.4s45.21-11.19,66.82,2.52c16.65,10.56,26.3,26,29.38,45.58.33,2.08.89,4.12,1.34,6.18ZM478.17,824.36a22,22,0,0,0,.41-2.72c0-54.34.17-108.69-.14-163-.08-15.89-6.12-30-17.16-41.47-11.94-12.43-24.28-24.48-36.47-36.66a26,26,0,0,0-20.87-7.72c-8.12.5-16.27.74-24.36,1.55-16.87,1.69-31.11-3.32-42.76-15.73-4.09-4.36-8.44-8.48-12.68-12.71-13.55-13.54-27-27.15-40.67-40.6-6.32-6.24-13.9-8.42-22.39-5.08-7.81,3.07-12.22,9-13,17.4-.77,7.84,3.12,13.63,8.44,18.92q38.7,38.5,77.19,77.22c9.18,9.27,9.31,22.24.87,30.89a21.34,21.34,0,0,1-30.39.3c-27.75-27.44-55.67-54.74-82.64-82.94-21.4-22.37-22.27-56.3-4-81.22a20,20,0,0,0,3.65-10.92c.31-26.81.17-53.63.17-80.45,0-12.68.19-25.38-.08-38.06S212,329.2,200,328.55c-12.43-.67-22.27,7.93-23.79,20.92a68.94,68.94,0,0,0-.28,7.88c-.15,75.18-.09,150.36-.57,225.53-.11,18.16,5.9,32.78,18.78,45.53,45.43,45,90.38,90.43,135.82,135.4,7.75,7.67,11.49,15.86,10.91,26.74-.6,11.14-.13,22.34-.13,33.81Zm181.49,0c0-12.18.41-23.66-.12-35.1-.47-10.12,3.18-17.72,10.32-24.8,46.06-45.7,91.79-91.73,137.77-137.52,11.67-11.62,17.58-25.23,17.33-41.77-.3-19.63-.11-39.27-.15-58.9q-.16-86.19-.38-172.38c-.06-15.43-9.6-25.63-23.18-25.42-13.3.2-22.19,10.35-22.21,25.55,0,38.79-.07,77.57.11,116.36a16.54,16.54,0,0,0,2.7,9.13c20.41,28,18.16,61.38-6.22,86.13-12.77,13-25.72,25.75-38.59,38.62-13.38,13.37-26.58,26.92-40.19,40.06-12.65,12.23-32.08,7-36.42-9.55-2.3-8.76.92-15.87,7.11-22q38.41-38.29,76.75-76.64c5.19-5.16,8.68-10.89,8-18.38-.73-8.37-5.12-14.39-12.91-17.5-8.44-3.36-16.08-1.35-22.41,4.93q-27.56,27.3-54.88,54.83c-10.61,10.68-23.33,15.46-38.3,14.46-8.6-.58-17.22-.87-25.81-1.62-9.5-.84-17.26,2.18-23.91,9-10.19,10.47-20.48,20.84-31,31-14.82,14.29-21.57,31.54-21.46,52.1.27,50.51.09,101,.09,151.55v7.93Zm-148-692.14c5.69,1.62,11.49,2.94,17.06,4.91a86.45,86.45,0,0,1,47.54,122.43c-1.11,2.08-2.19,4.16-3,5.67,9.77,5.75,19.72,10.5,28.42,16.95,18.39,13.64,29.16,32.51,34.54,54.64,5.08,20.9,10.41,41.74,15.54,62.62,7,28.35-11.14,51.64-40.31,51.67q-111.32.12-222.63,0c-29.15,0-47.26-23.34-40.3-51.67,5.14-20.89,10.42-41.74,15.56-62.62,8.49-34.46,29.5-57.73,63.08-70.29a27.25,27.25,0,0,0-1.38-3.83c-29.95-55-1.13-116.76,60.37-129.29a11.65,11.65,0,0,0,2.5-1.19ZM609.44,407.8c-5.25-21-10.3-41.58-15.6-62.12-6.39-24.78-24.62-40-50-40.5q-43.75-.85-87.53,0c-22.37.49-39.77,11.19-47,32.47-7.75,22.7-12.48,46.43-18.64,70.13ZM500.5,261.87A43.26,43.26,0,1,0,457,219,43,43,0,0,0,500.5,261.87Z" transform="translate(-132.29 -132.24)"/></svg>