<svg id="Layer_1" data-name="Layer 1" xmlns="http://www.w3.org/2000/svg" viewBox="0 0 753.41 753.32"><title>4</title><path d="M877,242.15c-1.38,13.62-2.71,27.25-4.16,40.86-13.26,124.91-64.15,231.63-154.61,319.12-12,11.58-24.67,22.41-36.72,33.92a15.76,15.76,0,0,0-4.61,9.1c-3.07,35.15-5.69,70.34-8.62,105.51-1.51,18.23-10,32.82-25.08,42.92-38.24,25.67-76.55,51.24-115.28,76.15-24.9,16-56.57,1.31-61.33-27.9-4.7-28.76-8.95-57.59-13.44-86.39a44,44,0,0,0-1.21-4.78c-6.91,0-13.26.46-19.52-.09-15.27-1.33-27.92-8.12-38.72-19q-62.28-62.54-124.81-124.83c-15-15-22.19-32.53-18.78-53.87a17.89,17.89,0,0,0,.2-2.93,12.24,12.24,0,0,0-.58-2.2c-14.34-2.27-29-4.63-43.71-6.92-16.21-2.52-32.48-4.71-48.64-7.55-28-4.92-42.95-36-27.72-59.93C155,433.46,181.35,394.18,207.84,355c9.69-14.31,24.21-21.89,41.55-23.32,34.44-2.84,68.88-5.65,103.34-8.07,6-.42,9.66-2.89,13.37-7.23,42.69-49.94,91.17-93.18,148.37-125.94,58.8-33.67,122.48-52.85,189.42-61.62,17.93-2.35,36-3.92,54-5.85h60.32a50.07,50.07,0,0,0,5.62,1.27c25.49,2.73,45.66,20.88,51.15,46.16.82,3.78,1.39,7.61,2.07,11.42Zm-98.93-74.61,0-.88c-15.88,1.11-31.79,1.88-47.64,3.4-60.71,5.84-119.45,19.88-173.73,48.09-99.42,51.66-172.67,129.69-225,228.11-2.27,4.27-1,6.41,1.91,9.3Q439.17,561,544.57,666.67c3.48,3.5,6.07,3.56,10,1.2,17.83-10.7,36.48-20.17,53.57-31.93,69.63-47.89,127.46-107.1,168.21-181.67,29-53,45.44-110.43,51.73-170.33,3.35-31.83,3.52-64,4.14-96.08.31-15.87-4.26-19.65-20.34-20.24C800.62,167.2,789.34,167.54,778.07,167.54ZM503.74,690.25,309.26,495.73c-5,20-9.72,40-14.9,59.77-2.26,8.65.42,14.88,6.6,21,37.78,37.45,75.25,75.22,113,112.74,21.23,21.12,14.69,19.83,45.91,13.06C474.78,699.05,489.39,694.24,503.74,690.25Zm5.48,139c3.54-2.26,6-3.8,8.45-5.4,28.63-18.9,57.38-37.6,85.81-56.79,21.3-14.38,20.76-8.87,22.28-37.76.09-1.71.41-3.41.54-5.12,1.21-16,2.4-32,3.62-48.13-1.33.13-1.9,0-2.26.25-2.71,1.66-5.39,3.38-8.07,5.09-31.93,20.31-65.53,37.23-101.24,49.86-7.35,2.6-18.16,3.19-21.12,8.31-3.22,5.59.56,15.42,1.74,23.33C502.21,784.68,505.68,806.43,509.22,829.26Zm-248-324.49c14.45-48.56,36.19-92.43,64.2-135-25.76,2.15-49.91,3.79-73.93,6.52-3.94.45-8.28,5.06-10.83,8.84C221.85,413,203.47,441,185,469.05c-4.58,6.92-9.14,13.85-14.31,21.69Zm32,190.72c-9.37-3.79-17.9-2-25,5.12Q199.49,769.16,131,837.88c-9.4,9.44-9.51,22.76-.87,31.64,8.81,9.05,22.44,9,32.17-.64q68.5-68.22,136.64-136.82c4-4.07,6-10.16,8.94-15.31C306.36,706.9,301.33,698.78,293.19,695.49Zm-65.78-65.86c-9-4-17.49-2.54-24.39,4.27Q166.71,669.73,130.87,706c-8.94,9.05-8.73,22.4-.24,31s22,9.2,31,.29q36.63-36,72.55-72.77c3.62-3.72,4.95-9.65,6.21-12.24C239.88,640.24,235.79,633.39,227.41,629.63ZM334.84,766.34c-24.36,23.72-48.32,47.87-72.25,72A20.49,20.49,0,0,0,257,858.65c4.32,17.27,24.37,22.73,37.56,9.94,15.63-15.16,30.86-30.72,46.26-46.12,8.48-8.48,17.12-16.81,25.34-25.52,6.65-7.05,8.25-15.47,4.21-24.42-3.78-8.36-10.63-12.45-23-12.94C344.76,760.92,338.74,762.54,334.84,766.34ZM529.56,360.25A110.27,110.27,0,0,1,639.74,249.88c60.75,0,110.44,49.64,110.43,110.36a110.31,110.31,0,0,1-220.61,0Zm44.15.11a65.71,65.71,0,0,0,65.79,65.9c36.77.1,66.64-29.61,66.51-66.14A66.56,66.56,0,0,0,640,294C603.45,293.82,573.65,323.65,573.71,360.36Z" transform="translate(-123.59 -122.99)"/></svg>