<svg id="Layer_1" data-name="Layer 1" xmlns="http://www.w3.org/2000/svg" viewBox="0 0 640.29 444.87"><title>6</title><path d="M331.37,496.21c10.39,0,20.31-.13,30.22,0,18.4.29,36.81.28,55.17,1.3,12.81.72,25.28,4,37.3,8.67,14.6,5.71,29.08,11.78,43.89,16.88,12.49,4.3,25.62,5.8,38.86,5.83,20.42,0,40.83,0,61.25,0a55.94,55.94,0,0,1,52.72,36.41c1.56,4.13,2.42,8.52,3.71,13.15,1.51-.83,3.14-1.7,4.74-2.62q49.56-28.51,99.12-57c20-11.44,44.79-6.63,58.35,11.12,16.2,21.2,10.74,51.91-11.94,65.68-30.49,18.52-61.12,36.79-91.69,55.17C676.24,673,639.34,695,602.61,717.31,571.79,736,539.73,739,506.25,725.62,488.47,718.52,470.81,711.1,453,704q-29-11.61-58.14-22.9a65.36,65.36,0,0,0-23.51-4.47c-13.16-.06-26.31,0-40,0,0,2.16,0,4.11,0,6.06.2,18-12.47,31-30.41,31.08-18.71,0-37.43-.2-56.14-.23-9.37,0-18.73.26-28.1.23-18.42,0-31-12.89-31-31.24q.06-98.89,0-197.8c0-18.26,12.77-31.34,31-31.38,27.78-.05,55.56.14,83.34-.05,18.82-.13,32.43,14.71,31.31,32.09C331.18,488.78,331.37,492.24,331.37,496.21Zm.14,158.59h4.15c11.15,0,22.33-.46,33.45.15,8.74.48,17.89.88,26,3.74,22.85,8.07,45.27,17.36,67.82,26.26,7.75,3,15.36,6.43,23.1,9.52,9.72,3.87,19.52,7.52,29.24,11.38,25.16,10,49.63,8.54,72.88-5.29,46.07-27.41,91.92-55.19,137.86-82.81,22.26-13.39,44.55-26.71,66.75-40.19,11.51-7,15-20.65,8.36-31.93-6.42-11-20.26-14.51-31.76-8-10.2,5.73-20.33,11.58-30.47,17.41-32.08,18.44-64.07,37-96.24,55.29a98.43,98.43,0,0,1-48.27,12.93c-19.07.18-38.14.07-57.22.08q-27.43,0-54.87,0c-6.87,0-11.47-4.48-11.4-10.87s4.75-10.67,11.61-10.68h7.69q50,0,100.06,0a85.36,85.36,0,0,0,39.94-9.4c1.09-.56,2.46-1.93,2.49-3a47.79,47.79,0,0,0-.65-11c-3.49-16.56-16.88-27.57-33.83-27.71-20.08-.17-40.16,0-60.24-.09a175.91,175.91,0,0,1-37.12-4.23c-16.46-3.62-31.6-10.72-47-17.2a139.56,139.56,0,0,0-53.28-11.13c-18.29-.18-36.59-.09-54.88-.12H331.51Zm-21.76-71.24h0V498.92c0-5.12.05-10.25,0-15.38-.06-4.71-3.27-8.23-7.76-8.38-6.9-.24-13.8-.49-20.7-.48-10,0-20.05.35-30.08.42-11.15.08-22.3,0-33.45,0-7.72,0-10.44,2.73-10.44,10.49q0,37.47,0,74.93,0,60.72,0,121.44c0,7.21,3,10.18,10.17,10.18H300.1c6.53,0,9.68-3.15,9.68-9.61,0-10.14,0-20.28,0-30.43Zm410.3-53.27V422.51c-37.78-7.64-60.49-30.26-68.23-68.18h-191c-7.71,37.78-30.29,60.39-68.09,68.16v64.34H370.91V354.41c0-13.48,8.18-21.77,21.59-21.78H720.44c12.78,0,21.22,8.42,21.22,21.11q0,80,.07,160c0,3-.74,4.79-3.53,6.24C732.21,523.07,726.43,526.62,720.05,530.29Zm-45.53-176c2.68,20.72,22.16,42.11,45.4,45.58V354.33ZM392.8,399.82c20.05-2.65,41.91-21.68,45.4-45.44H392.8Zm393.34,76.23q0-82.82,0-165.63c0-13.22-8.34-21.41-21.61-21.42H499.9c-4,0-8,0-12,.05-8.9.06-17.81.16-26.72.16-9.24,0-18.48-.36-27.71,0-8.74.3-16.62,7.3-17.67,16-.72,5.89-.14,11.94-.14,18H437V310.66H764.46V505.32l21.68-2.55ZM632,442.24c-.4,42.33-34.34,75.61-76.86,75.1a75.35,75.35,0,0,1-74.5-76.12c.16-42.29,34.53-75.59,76.88-75.15A75.49,75.49,0,0,1,632,442.24Zm-129.64-.73c-.37,29.42,23.74,53.91,53.43,54.27s54.41-23.89,54.59-53.18c.19-30.31-23.83-54.85-53.82-55A54.19,54.19,0,0,0,502.33,441.51Zm25,16.32h14.88c1.09,4.71,2.86,8.91,8.44,10.64,0-7.26.06-14.23-.09-21.19,0-.74-1.22-1.66-2.07-2.13-3.7-2-7.64-3.68-11.16-6-7.4-4.8-9-12.17-7.73-20.26,1.26-7.89,6.3-12.82,13.78-15.28,2.21-.72,4.53-1.1,7.2-1.73v-7.24H559a31.88,31.88,0,0,1,0,3.92c-.34,2.79.5,4,3.59,4.52,10.31,1.66,17.16,9.75,16.83,19.53H565c-1.36-2.88-1.37-7-6-8.57,0,6.2-.09,12.07.1,17.93,0,.79,1.38,1.75,2.32,2.26,3.51,1.9,7.33,3.32,10.64,5.52,8.24,5.47,11,13.56,8.74,24-1.79,8.15-8.14,13.78-17.37,15.4L559,480v9.62h-8.19V480C537.59,478.32,528.71,472.18,527.29,457.83Zm31.86,10.75c4.61-1.25,6.59-3.77,6.84-8.26.27-4.81-2.13-8.49-6.84-10.25Zm-8.7-55.18c-4.18,1.47-5.77,3.81-5.75,7.93s1.85,6.59,5.75,7.83Z" transform="translate(-185.75 -289)"/></svg>