<svg id="Layer_1" data-name="Layer 1" xmlns="http://www.w3.org/2000/svg" viewBox="0 0 661.16 660.94"><title>7</title><path d="M712.31,306.82l-96.93,96.95c45.27,62.82,47,127.91-1.89,195.29,30,29.93,59.38,60.45,90.63,88.86,4.81,4.37,19,.68,27.94-2.13,31.16-9.78,63.37-.41,83.3,25.62a73.72,73.72,0,0,1,2.21,87.08c-18.38,26.56-51.79,38.47-82.07,29.26-32.29-9.82-53.85-38.22-53.85-71.23,0-5.29-.95-11.88,1.69-15.67,18.88-27.12,1.41-42.64-16.76-59.47-21.49-19.9-41.61-41.28-62.38-62-1.23-1.22-2.93-2-6.44-4.26-64.07,46.23-130,47.32-194,.31l-95.62,95.77c16.24,59.08,9,89.2-27.12,109.78-30.86,17.55-68.33,11.39-92.13-15.16a74.16,74.16,0,0,1-6.35-91.19c22.29-32.83,56.38-39.53,105-21.58l96.84-97.18C339,533.08,339,468,384.34,405l-97-97.07c-49.7,18.15-84.31,10.76-106-23.83-18.83-30-14.24-67.89,11.23-92.75a73.83,73.83,0,0,1,93-8.88c33.48,22.34,40.54,57.74,22,104.33,32.49,32.49,64.36,64.39,97.46,97.5,62-44.65,127.08-45.65,194.16,2.94,29.46-29.7,59.36-58.54,87.23-89.23,4.59-5,2.52-19-.32-27.49-14-41.75,7.25-84.6,49.38-97.37,40.79-12.37,84.61,13.41,93.63,56,5.77,27.29-2.2,51.29-22.81,70s-44.55,25-71.55,16.45C727.17,313.24,719.91,309.84,712.31,306.82ZM455.86,526.65c-26.05-36.68-25.95-68.94,1.05-94.14a62.81,62.81,0,0,1,82.71-3.36c30.29,24.1,31.54,54.84,5.69,98.37L595.36,584c47.74-54.31,43.11-131.94-11.23-179.68C531.37,358,452.23,362.93,405,415.53c-44.75,49.86-43.48,127.23.92,167.5Zm115.66,77.66c-7.22-37.57-34.74-61.13-71.37-61.09s-64.09,23.64-71.21,61.21C473.41,636.87,527.42,636.83,571.52,604.31ZM297.58,245c.25-28.49-23-52.67-51.44-53.62-29.51-1-54.69,23.2-54.94,52.75-.24,28.5,22.94,52.68,51.42,53.64C272.06,298.79,297.33,274.52,297.58,245Zm511.75.86c.71-28.43-22.15-53-50.58-54.45C729.27,190,703.67,213.76,703,243.3c-.7,28.44,22.14,53.05,50.56,54.47C782.91,299.25,808.6,275.37,809.33,245.89ZM297.58,756.58c.14-28.47-23.16-52.57-51.63-53.42-29.53-.87-54.61,23.38-54.75,53-.14,28.5,23.13,52.59,51.61,53.44C272.26,810.43,297.44,786.08,297.58,756.58Zm457.56,53c28.46.53,52.92-22.44,54.18-50.89,1.31-29.41-22.71-54.95-52.2-55.5-28.51-.53-52.91,22.39-54.16,50.87C701.66,783.49,725.64,809,755.14,809.55ZM542.78,479.21c.05-22.91-18.83-42.13-41.8-42.55a42.78,42.78,0,0,0-43.21,41.09c-.8,23.94,19.14,44.28,43.06,43.92C523.75,521.33,542.73,502.12,542.78,479.21Z" transform="translate(-169.76 -170)"/></svg>