<svg id="Layer_1" data-name="Layer 1" xmlns="http://www.w3.org/2000/svg" viewBox="0 0 701.95 702.1"><title>8</title><path d="M861.13,824.82c-4.76,12.55-12.23,22.34-26.22,25.21a48,48,0,0,1-9.51.81q-88.08.06-176.14,0c-21.87,0-35.85-13.58-35.85-35.26,0-24.89-.8-49.87,1-74.65,2.52-34.67,30.16-62.79,64.63-68.43,1.54-.25,3-.66,4.55-1-.09-.77,0-1.34-.21-1.57-18-17.78-25.47-39.54-24.57-64.54.19-5.24,0-10.51,0-15.76.11-7.45.83-14.67-6.62-20.13-2.77-2-4.4-7.26-4.45-11.06-.23-15-.87-30.25,1-45.12,3.18-25.92,26.34-45.81,52.47-46.23q36-.57,72,0c29.07.46,53,24.44,53.7,53.45.29,11.87,0,23.75.12,35.63,0,6.82-2.74,12.19-7.48,17a13.23,13.23,0,0,0-3.56,7.93c-.52,13.46.17,27-.84,40.39-1.32,17.64-8.81,32.89-20.92,45.83-1,1.09-1.87,2.36-3.15,4,5.19,1.23,9.92,2,14.38,3.46,30.07,10.11,48.33,30.71,54.52,61.91a18.27,18.27,0,0,0,1.2,3.09ZM724.91,532.88c-.54.75-.94,1.08-1,1.48-6,21.73-19.43,36.12-41.3,42.5-1.41.41-3,3.24-3,5-.06,12.54-.44,25.13.59,37.6,2.29,27.92,26.92,50.89,54.66,51.83,29.39,1,55.16-19.29,59.1-48,1.82-13.23.85-26.84,1.38-40.26.16-4.07-1-5.81-5.21-7-15.21-4.29-28.74-13-33.45-27.86-4.86-15.29-13.88-16.85-26.57-15.29A40.44,40.44,0,0,1,724.91,532.88ZM703.07,745.42c-17.7,1.75-24.47-2.56-29.92-17.88-3.26-9.14-6.55-18.28-10-27.92-15.65,9.63-26.58,22.64-27.81,40.1-1.83,26.13-1.17,52.44-1.17,78.67,0,6.39,4.13,11.39,10.53,11.57,18.8.53,37.63.19,56.9.19-8.43-11.7-8.82-13.2-6.49-27.12,2.6-15.52,5.41-31,7.89-46.53C703.53,753.07,703.07,749.48,703.07,745.42Zm68.49,84.79c20.53,0,39.17.25,57.81-.13,6.82-.14,11.11-5.67,11.14-13.2.1-23.29.61-46.6-.18-69.86-.7-20.5-10.77-36.1-28.93-47.46-3.36,9.51-6.43,18.26-9.53,27-5.73,16.16-11.81,20.16-30,19.1-.25,2.76-1.11,5.66-.68,8.36q4,25,8.62,49.88C781.53,813.4,781,822.15,771.56,830.21ZM669.07,557.29a26.26,26.26,0,0,0,3.71.21c14.31-1,26.28-11.61,30.68-27.22,3.42-12.09,10.82-17.8,23.35-17.95,5-.05,10.05,0,15.08,0,19.93,0,23.93,2.85,30.24,21.52,5,14.91,20.16,25.2,34.23,22.87,0-11.75.24-23.6-.05-35.43a34.44,34.44,0,0,0-33.9-33.62q-35.28-.46-70.56,0c-15.82.2-30.51,11.6-32.42,27.21C667.73,528.73,669.07,543,669.07,557.29ZM723.2,760.56c-2.72,15.8-5.38,31.27-8.05,46.73-.12.68-.58,1.45-.38,2,.73,1.91,1.18,4.37,2.62,5.49,18.85,14.71,20.63,14.72,39.55.23,1.48-1.13,2.92-3.77,2.67-5.44-2.53-16.38-5.43-32.71-8.22-49Zm14.07-60.34c-6.12,9.19-11.92,17.57-17.36,26.19-2.74,4.35,1.17,13,5.76,13.11,8.86.19,17.72.05,27.77.05.46-4.65,2.64-9.88,1-13.08C749.7,717.51,743.4,709.37,737.27,700.22Zm54.79-7.9H756.8l23,34.53C784.13,714.72,787.87,704.17,792.06,692.32Zm-97.31,34.52,22.87-34.26h-35ZM522.53,149c6,1.27,12.11,2.18,18,3.86,50.06,14.34,82.11,46.85,91.11,98C641,304.06,621,346.62,576.45,377.33c-4.74,3.26-9.91,5.84-10.37,12.58-.41,6-.06,10.41,6.67,14.25,21.86,12.47,20.92,44-1.29,56.24-4.27,2.36-5.83,4.78-5.57,9.45a65,65,0,0,1-.69,13.65c-2.23,14.16-13.37,25.41-27.67,26.14-17.54.89-35.18.94-52.73.22-16.68-.69-28.22-12.56-30.14-29.15a32,32,0,0,1-.22-6.84c.68-6.8-1.08-11-7.79-15.11-20.46-12.46-19.56-42.3.86-54.91,3.26-2,7.45-2.69,7.08-8.52-.41-6.47-1.17-11.87-7.14-15.95-8.07-5.51-16.24-11.15-23.3-17.87-38.69-36.82-48.83-96.08-24.8-143.7,1.62-3.22,4.55-7,7.64-7.91s8.77.48,10.13,2.76c1.95,3.27,2.61,9,1.05,12.42-7.48,16.28-11.81,33.06-11,51,1.57,35.3,17,63.28,46.33,82.62,14,9.25,22.78,20,21.57,37.36a7.68,7.68,0,0,0,.68,2.26h23.57V328.57c-3.47,0-7.06.11-10.63,0-6.93-.26-11.33-4.25-11.39-10.19s4.29-10.24,11.17-10.3q21.93-.19,43.87,0c6.42.07,10.68,4.3,10.76,10s-4.08,10-10.45,10.4c-3.81.23-7.64,0-11.8,0V398.2h23.64c.26-.43.73-.83.71-1.19-1.23-18.12,7.92-29.3,22.67-38.9C607,332.67,623,282.88,607.62,238.62a103.06,103.06,0,0,0-105-68.75,101.69,101.69,0,0,0-56.58,22,47.61,47.61,0,0,1-4.35,3.32c-4.93,3.09-9.63,2.66-13.61-1.6a9.42,9.42,0,0,1,.82-14.08,144.3,144.3,0,0,1,18.26-13.23,117.69,117.69,0,0,1,45.54-16,20.84,20.84,0,0,0,3.74-1.26Zm-12.4,295.1v0c14.82,0,29.64.15,44.46-.06,8.38-.12,13.35-5.06,13.28-12.41s-5.26-12.28-13.5-12.32c-29.42-.12-58.83-.05-88.24-.05-.46,0-.92,0-1.37,0-7.58.68-12.47,5.83-12.25,12.89.21,6.8,4.92,11.66,12.48,11.79C480,444.29,495.08,444.1,510.13,444.1Zm35.14,21.17H475.1c0,4.78-.34,9.09.08,13.33.65,6.5,4.48,10.72,11.08,10.84q23.91.46,47.83,0c6.61-.12,10.45-4.3,11.1-10.8C545.62,474.41,545.27,470.09,545.27,465.27ZM336.69,671.4c3.43.71,6.25,1.21,9,1.87,36,8.47,60.38,38.71,61.19,76.87.48,22.15.31,44.31,0,66.46-.25,20.53-14.27,34.21-34.78,34.24q-62.7.12-125.4,0c-7.33,0-11.64-3.45-12.16-9.31-.55-6.24,3.24-10.14,10.93-11.26.58-.09,1.14-.33,2.34-.68-8.82-7.66-9-17-7-27.2,3.13-16.12,5.76-32.34,8.34-48.56.43-2.68-.51-5.58-.81-8.33-17.46,1.55-24.06-2.7-29.7-18.5-3.13-8.79-6.22-17.61-9.82-27.8-4.66,3.8-9.15,6.77-12.81,10.55-10.45,10.76-16,23.81-16.18,38.84-.21,22.38-.12,44.77,0,67.15,0,10,4.66,14.41,14.83,14.55,3.43.05,6.91-.27,10.27.22,5.42.79,8.62,4.37,8.84,9.76.2,5.11-2.58,9.42-7.59,10-11.62,1.39-23.36,1.8-33.46-5.92-8.71-6.64-13.39-15.48-13.44-26.47-.1-22.84-.24-45.68,0-68.52.44-39.11,27.92-70.71,66.58-77,1.09-.18,2.16-.52,4.06-1-1.37-1.73-2.31-3.09-3.42-4.29-14.38-15.36-21.54-33.64-21.9-54.59-.19-10.73.14-21.47-.18-32.2a10.74,10.74,0,0,0-3.13-6.77c-5.14-4.83-8-10.39-7.93-17.48.08-11.65-.15-23.3.1-35A55.18,55.18,0,0,1,248,467.08c23.06-.3,46.14-.25,69.2,0,30.41.27,54.32,23.36,55.59,53.8.5,11.86.9,23.82-.2,35.6-.52,5.62-4.65,10.91-7.09,16.37-1.38,3.09-3.62,6.18-3.78,9.36-.51,9.57-.21,19.18-.18,28.77,0,21.71-6.74,40.77-21.81,56.66C338.81,668.57,338.05,669.69,336.69,671.4ZM260.4,555.07c-8.74,11-19.15,18.3-32.2,21.81-1.36.36-2.86,3.23-2.9,5-.24,10.95-.43,21.93,0,32.88A58.92,58.92,0,0,0,276.64,671c26.45,3.4,52.85-13.36,61.22-39.32,5.59-17.34,2.34-35.2,3.07-53.44-7.94,0-15,.12-22,0-7.75-.15-15.6.19-23.21-1C281.13,575,269.68,566.87,260.4,555.07Zm91.86,2.19c0-12.85.62-25-.14-37-1.2-18.8-16.14-32.53-34.91-32.68q-34.24-.27-68.5,0c-16.89.15-31.81,11.63-33.83,28.18-1.66,13.65-.34,27.66-.34,42a74.69,74.69,0,0,0,8.41-1c15.53-3.77,25.53-15.83,27-32.25.66-7.71,4.38-12,10.37-12.12,5.76-.07,9.54,4.06,10.32,11.26,1.94,18,12.88,32,29,33.3C316.8,558.37,334.19,557.26,352.26,557.26Zm-34.55,273c20,0,38.2.18,56.42-.09,7.6-.11,12.2-5.31,12.26-13.64.16-22.82.54-45.67-.16-68.47-.65-21-10.53-37.11-29.08-48.43-3.19,9.06-6.14,17.43-9.1,25.79-6.18,17.46-11.19,20.92-30.78,20.39,0,3.52-.46,7.08.08,10.48,2.52,15.76,5,31.54,8.13,47.17C327.48,813.35,326.53,822,317.71,830.27ZM269,760.42c-2.81,16.32-5.68,32.23-8.15,48.21a7.83,7.83,0,0,0,2.42,6.17c18.23,14.53,18.28,14.47,37.33,1.75,1.14-.76,2.52-1.32,3.34-2.34s1.93-2.76,1.73-4c-2.73-16.57-5.67-33.11-8.58-49.81ZM283.1,700.2c-5.77,8.64-10.59,16.63-16.21,24-3.59,4.71-1.9,8.93.39,12.56,1.17,1.86,5.15,2.5,7.92,2.69a126.29,126.29,0,0,0,17.07,0c2.34-.15,6.07-1.11,6.59-2.6,1.22-3.49,2.4-8.35.87-11.17C295.1,717.13,289.16,709.27,283.1,700.2Zm-19.84-7.37H228.42c4.16,11.59,7.92,22,12.18,33.92Zm39.45-.32,22.94,34.35,12.14-34.35Zm-6.94-250.73c15-8.55,30.12-16.81,44.73-25.95,4.12-2.58,3.9-8.13,1-12.37s-7.25-6.28-11.86-3.76c-14.15,7.74-28.27,15.59-41.82,24.3-2.57,1.66-4,7.82-3.15,11.27.72,3.09,5.21,5.31,7.18,7.14C294.45,442,295.22,442.1,295.77,441.78ZM677.66,406.5c-2,4.94.53,9.25,5.24,12,12,6.94,24,13.92,36,20.8,7.22,4.13,13.4,3.09,16.52-2.6,3-5.53.92-11-6.11-15.11Q712,411.39,694.48,401.47c-2.32-1.32-4.94-2.11-9.05-3.81C682.82,400.5,679.09,403,677.66,406.5ZM284.35,179.13c-2.12,4.87.22,9.36,5,12.12q18.06,10.45,36.18,20.84c7.44,4.26,13.4,3.3,16.57-2.54,3-5.55.86-11.08-6.17-15.17q-17.43-10.17-35-20.13c-2.13-1.2-4.56-1.87-8.58-3.48C289.72,173.38,285.83,175.73,284.35,179.13ZM261.42,296.77c-6.89.16-11.38,4.36-11.33,10.2,0,5.55,4.38,10.08,10.78,10.19,14.84.24,29.69.26,44.53,0,6.58-.12,10.48-4.42,10.46-10.3s-3.85-9.83-10.59-10c-7.3-.22-14.62-.05-21.93-.06S268.73,296.6,261.42,296.77Zm476.12,0c-7.3,0-14.62-.14-21.92,0s-11.17,4-11.1,10.24c.05,5.86,4,10,10.63,10.14q22.26.39,44.53,0c6.34-.12,10.66-4.81,10.6-10.35s-4.33-9.8-10.81-10c-7.3-.22-14.62-.05-21.93-.05Zm-47.33-82.32c14.44-8.28,29-16.34,43.14-25.11,4.28-2.66,4.41-7.87,1.93-12.35-2.75-5-7.81-6.74-12.34-4.32-14.27,7.63-28.36,15.68-41.92,24.49-2.51,1.63-3.72,7.92-2.81,11.35.81,3,5.37,5.1,7.35,6.79C688.44,214.76,689.47,214.84,690.21,214.41Zm69.9,366.27c-6.55-.06-10.18,4.3-10.27,12.34-.09,8.52,3.39,13.41,9.75,13.69s10.74-4.77,10.81-12.83C770.46,585.47,766.77,580.74,760.11,580.68Zm-45.68,26c6.5.09,10.58-5.05,10.52-13.28s-3.66-12.64-10.2-12.75c-6.84-.1-10.39,4.39-10.35,13.12C704.44,601.81,708.17,606.62,714.43,606.71Zm-454.17-26c-6.65.06-10.34,4.81-10.27,13.21.06,7.77,3.91,12.65,10.12,12.83,6.42.19,10.41-4.8,10.43-13C270.56,585.13,267,580.61,260.26,580.68Zm45.86,0c-6.83-.19-10.69,4.49-10.69,12.94,0,8.2,4.19,13.32,10.7,13.09,6.25-.23,9.85-5,9.85-13.1C316,585.22,312.65,580.86,306.12,580.68Z" transform="translate(-159.17 -149)"/></svg>