<svg id="Layer_1" data-name="Layer 1" xmlns="http://www.w3.org/2000/svg" viewBox="0 0 721.18 721.41"><title>9</title><path d="M703,139a14.6,14.6,0,0,0,2.49,1.2c21.46,5.92,34.95,21.74,35,43.73.32,89.2.13,178.41.11,267.61a14.9,14.9,0,0,1-.51,2.48h-29.7V445.4q0-127.47,0-254.94c0-17.35-4.2-21.53-21.67-21.53H191.48c-17.63,0-22,4.39-22,22.1q0,173.6,0,347.19c0,17,4.61,21.58,21.83,21.58h188.3v29.85H350.23v60.19h59.38v29.68H290.3V650h29.16V589.73H311.6q-62,0-124,0c-29.14,0-48.09-18.9-48.1-48q0-177.12,0-354.24c0-24.7,11.24-39.83,35-47.32a6.73,6.73,0,0,0,1.63-1.19ZM860.71,798.2a78.65,78.65,0,0,0-5.21-6.38q-46.5-46.59-93.14-93c-6.85-6.79-14.79-6.66-21.91,0-3.34,3.13-6.07,6.91-8.46,9.68l-32.12-32.07c59.56-74.36,42.09-174.67-20.79-228A163.48,163.48,0,0,0,464,451.42c-60.58,54.36-71.76,145.83-25.71,213,23.19,33.82,54.76,56.37,94.65,66.27,53.37,13.25,101.52,1.23,143.94-31.52l32.24,32.16c-2.66,2.25-5.93,4.6-8.71,7.43-8,8.14-8,15.85-.19,24,3.58,3.72,7.29,7.32,10.94,11q40.07,40.08,80.15,80.14c7.68,7.65,15.61,8.91,22.31,2.33,16-15.73,31.46-32,47.13-48.09ZM439.88,572c.46-73.56,60.89-133.26,134.27-132.63S706.73,500,706.22,573.3C705.7,647,646.17,706.17,572.86,705.78,499,705.39,439.42,645.47,439.88,572ZM751,731.66l71.35,71.73-18.93,19L731.78,750.6ZM341,289.18c3-3,5.44-4.06,9.73-2.42a40.1,40.1,0,0,0,28.93-.17c3.76-1.41,5.93-.58,8.55,2.09q18.24,18.6,36.85,36.84c3.05,3,3.8,5.35,2.35,9.71a44.58,44.58,0,0,0,16.35,50.64,45.2,45.2,0,0,0,52.68-.07,44.41,44.41,0,0,0,16.2-50.62c-1.44-4.34-.54-6.74,2.5-9.7,11.94-11.63,23.82-23.33,35.3-35.4,3.8-4,6.95-4.51,12.14-2.93,32.82,10,64.46-19.71,56.59-52.86-6-25.22-30.77-40.22-55.49-33.57C538.6,207.46,524.61,233,532.5,258c1.13,3.56,1.83,6.18-1.45,9.34C518.21,279.76,505.84,292.62,493,305c-1.66,1.6-5.44,2.37-7.71,1.71-10-2.92-19.95-3.59-29.7.15-4.07,1.56-6.36.57-9.12-2.24-12-12.23-24.08-24.39-36.37-36.33-3.25-3.14-4.11-5.66-2.56-10.21a44.23,44.23,0,0,0-16.44-50.52,45.17,45.17,0,0,0-52.67.22,44.37,44.37,0,0,0-16,50.67c1.47,4.3.56,6.63-2.47,9.6-16.91,16.62-33.6,33.46-50.35,50.23-1.75,1.75-3.39,3.6-4.91,5.22l20.92,21.3C304.26,326.08,322.73,307.72,341,289.18Zm219.43-44.64a14.82,14.82,0,0,1,14.79-15.35,15.11,15.11,0,0,1,15,15.28A14.87,14.87,0,0,1,575.28,259,14.48,14.48,0,0,1,560.44,244.54ZM484.88,348.88a14.84,14.84,0,0,1-14.71,15.44,15.16,15.16,0,0,1-15.07-15.21A14.85,14.85,0,0,1,470,334.51,14.47,14.47,0,0,1,484.88,348.88Zm-135-104.43a15,15,0,1,1,30,.1,15,15,0,0,1-30-.1ZM200,487.11c.76,20.51,16.08,38.78,36.44,41.47,12.36,1.63,25.12.3,38,.3V499.59c-9,0-17.58,0-26.2,0-13-.05-18.46-5.39-18.51-18.3,0-8.82,0-17.63,0-26.49h-29.8C199.88,466,199.55,476.59,200,487.11Zm.25-91.95v29h29.14v-29ZM575.55,498.92c45.54,4.91,70.5,30.21,75.54,75.18H679.9c1.16-63.31-56.64-107.28-104.35-103.6Z" transform="translate(-139.53 -139)"/></svg>