<svg id="Layer_1" data-name="Layer 1" xmlns="http://www.w3.org/2000/svg" viewBox="0 0 370 355"><defs><style>.cls-1{fill:none;}.cls-2{fill:#e0e0e0;}</style></defs><title>about-mask-shape-h3</title><rect class="cls-1" width="370" height="355"/><path class="cls-2" d="M324.49,35.43a55.12,55.12,0,0,0,7.73,7.15,17.9,17.9,0,0,0,3.52,2.36c2.18,1,1.86,2.91,1.9,4.69,0,.8-.76,1-1.27,1.34a2.41,2.41,0,0,0-1.25,2.48c0,.92.3,1.35,1.22,1.2a4,4,0,0,1,4,1.62c1.28,1.61,3.06,1.72,4.92,1.89s3.56.5,5.07-1.06c.92-1,2.27-.48,3.4-.32a3,3,0,0,0,3.33-1.34,3.72,3.72,0,0,1,4.67-1.7c1.31.39,2.64.46,2.45-1.63-.1-1,.64-1,1.29-.83s2-.63,2.21.91a6.59,6.59,0,0,1,0,.89q0,16.82,0,33.64a5.49,5.49,0,0,1-.72,2.86,35.26,35.26,0,0,0-2.37,4.35c-2.21,5.35-6.9,8.56-10.65,12.6a64.26,64.26,0,0,1-10.34,8.56,15.75,15.75,0,0,0-3.29,3.18C336,123.87,331.64,129.56,327,135a11.15,11.15,0,0,1-3.35,2.52,1.43,1.43,0,0,0-.93,1.68c.71,3.76-2.33,5.81-3.94,8.49-.59,1-1.42-.57-2.4,0,.8,2-.19,3.78-1.1,5.56a1.5,1.5,0,0,0,0,1.34c.34.88.6,1.8,1,2.66a11.87,11.87,0,0,1,.91,8.53c-.7,2.35.57,4.62,1,6.92.56,3.15,1.67,6,4.51,7.86a2.06,2.06,0,0,1,.89,2.57c-.28,1-.24,2.12-.53,3.13a4.53,4.53,0,0,0,.61,4.19,2.09,2.09,0,0,1,.54,1.81c-1.74,5.75-.35,11.62-.61,17.42a4,4,0,0,1-.82,2.22c-2.92,4.3-7.2,6.74-11.82,8.58A43.94,43.94,0,0,0,296,230.12,7.82,7.82,0,0,1,293.3,232c-1.14.43-2.12.88-1.95,2.47.13,1.12-.88.75-1.4.58-1.25-.41-1.45.16-1.59,1.25a13.81,13.81,0,0,0,1,7.18,26.79,26.79,0,0,1,1.38,14.56,4.58,4.58,0,0,1-3.46,4.15c-3.5,1.24-6.9,2.77-10.33,4.18a5,5,0,0,0-2.8,4.46c0,.59.15,1.17.21,1.76.28,2.68.72,5.25-1.6,7.55-1.18,1.17-1.62,3.11-2.29,4.74a3,3,0,0,1-1.9,1.93,6.77,6.77,0,0,0-3.87,3.36,62.09,62.09,0,0,1-17.64,19.05,22.41,22.41,0,0,1-13.39,4.2,2.43,2.43,0,0,0-2.37,1.19c-.61,1.1-1.34.87-2.34.46a13.23,13.23,0,0,0-12.4.66,4,4,0,0,1-2.14.62c-2.93,0-5.87-.25-8.67,1.06-.71.33-1.93,1.12-2.28-.6-3.62-1-5-4.56-7.6-6.7a2.77,2.77,0,0,1-1.06-1.78c-.14-1-.2-1.82,1.21-1.59a1.09,1.09,0,0,0,1.37-.8,1.61,1.61,0,0,1,1.24-1.07c-2.57-3.65-4.57-7.52-6.83-11.24a1.85,1.85,0,0,1-.29-1.17c.49-2.32-.85-3.91-2.1-5.56-2.67-3.51-5.73-6.7-7.95-10.59a22,22,0,0,1-2.5-8c-.34-2.48-.4-4.92-1.34-7.39-.79-2.07-.26-4.66-.21-7a5.8,5.8,0,0,0-1-3.47c-2.29-3.58-4.6-7.15-6.71-10.83-2.8-4.91-5.12-10.08-8-15a8,8,0,0,1-.61-3.62c-.15-2.3-.19-4.6-.3-6.9a4.19,4.19,0,0,1,.51-2,33.69,33.69,0,0,0,3.29-11.49,3,3,0,0,1,.81-1.71c1.42-1.58,2.73-3.27,4.25-4.75,2.92-2.88,3.19-6,1.42-9.59-1.55-3.11-3-6.24-2.59-9.93.13-1.13.73-2.13.49-3.42a24.55,24.55,0,0,0-2.58-6.36,64.12,64.12,0,0,1-5.08-12.4c-.51-2-2-3.61-3.36-5.13-2.33-2.59-4.71-5.13-7.17-7.6-3-3-4.88-6.78-7.07-10.34-.59-.94-1-2.38.65-3.13a1.37,1.37,0,0,0,.71-1c.59-2,1.22-4.07,1.8-6.11.27-1,.49-2-.61-2.65-.59-.37-.42-.85-.12-1.37,1.94-3.3,2.4-7,2.71-10.69a2,2,0,0,0-.84-1.81c-.77-.66-1-1.25-.07-2,.41-.33,1-.7.34-1.42s-1.11-.16-1.44.26c-1,1.25-1.62.74-2.4-.25-1.06-1.33-2.25-2.56-3.49-4-.59,1.37-1.69,1.36-2.84,1.47-3,.28-6.06.74-9.14.78-2.53,0-3.9-1.26-5-3.2-1.33-2.41-1.92-5.22-4-7.21-.44-.41-.82-.89-1.45-.9-5.11-.15-10.22-1.14-15.34-.11a6.82,6.82,0,0,0-2.43,1c-1.94,1.3-3.8,2.67-6.41,2.58-1.11,0-2.27.89-3.38,1.41-2.35,1.11-4.68,2.26-7,3.38a2.28,2.28,0,0,1-2.18.27C74.29,91,66.65,92.06,59,94.19c-2.71.74-5.37,1.8-8.26,1.84a5.09,5.09,0,0,1-2.86-.67,12.48,12.48,0,0,0-1.9-1,20,20,0,0,1-9.84-8c-1.24-2-3.63-2.36-5.21-4-3.21-3.29-6.73-6.28-10.18-9.33a2.73,2.73,0,0,1-1.05-2.43c.11-1.77.58-3.68-1.14-5.07.16-3.6-3.11-4.49-5.11-6.37-.75-.71-1.56-1.24-1.38-2.45a1,1,0,0,0-.23-.8C8.28,53.7,6.25,50,3.4,47.07,2.34,46,2.16,42.2,3.22,41.14c1.74-1.74,2-3.37.27-5.21-.1-.11-.06-.33-.09-.5Zm40.56,164.15c-.39,0-.81.19-.84.74-.18,2.72-1.77,5-2.58,7.47a1.89,1.89,0,0,1-2,1.57,1.69,1.69,0,0,0-1.87,1.28c-.94,3.2-3.1,4.06-6.16,3.24a8.46,8.46,0,0,0-.88-.09c-1.18-.2-2.36-.48-2.89,1.11-.18.54-.78.42-1.24.47-1,.1-2,.22-3,.29-.55,0-.95.23-.9.83.2,2.11-1.29,3.47-2.3,5a6.88,6.88,0,0,0-1,3.11c-.43,3.7.52,7.14,1.64,10.56a3,3,0,0,1-.44,2.93c-2.4,3.29-4.65,6.69-7,10a4.53,4.53,0,0,0-.8,2.94c0,2.72,2.08,5.4.23,8.17,0,.08,0,.23,0,.35,1,3.79,1.52,7.88,6.23,9.12l.16.08a3.74,3.74,0,0,0,4.14.18,13.07,13.07,0,0,1,4.13-1.52c3.66-.34,5.85-2.38,6.82-5.88a32.81,32.81,0,0,1,1.48-4.17q5.44-12.66,11-25.31a9,9,0,0,0,.77-3.76c-.05-5.31,0-10.63,0-15.94V198.19A5.12,5.12,0,0,1,365.05,199.58Z"/></svg>