<svg id="shape-44" xmlns="http://www.w3.org/2000/svg" width="512" height="512" viewBox="0 0 512 512">
  <path id="Union_11" data-name="Union 11" d="M-4805-4893a60.178,60.178,0,0,1-60-60v-121a60.177,60.177,0,0,1,60-60h121a60.177,60.177,0,0,1,60,60v121a60.178,60.178,0,0,1-60,60Zm-271,0a59.816,59.816,0,0,1-42.375-17.625A59.819,59.819,0,0,1-5136-4953v-121a60.176,60.176,0,0,1,60-60h121a90.1,90.1,0,0,0,90-90v-121a60.177,60.177,0,0,1,60-60h121a59.815,59.815,0,0,1,42.375,17.625A59.814,59.814,0,0,1-4624-5345v121a60.176,60.176,0,0,1-60,60h-121a90.1,90.1,0,0,0-90,90v121a60.176,60.176,0,0,1-60,60Zm0-271a60.176,60.176,0,0,1-60-60v-121a60.177,60.177,0,0,1,60-60h121a60.176,60.176,0,0,1,60,60v121a60.175,60.175,0,0,1-60,60Z" transform="translate(5136 5405)" fill="#6d6d6d"/>
</svg>
