<svg id="Layer_1" data-name="Layer 1" xmlns="http://www.w3.org/2000/svg" viewBox="0 0 370 355"><defs><style>.cls-1{fill:none;}.cls-2{fill:#e0e0e0;}</style></defs><title>about3-main-shape</title><rect class="cls-1" width="370" height="355"/><path class="cls-2" d="M14,176.33Q14,116.18,14,56A45.24,45.24,0,0,1,18,38.61a48.62,48.62,0,0,1,7-11.82A58.52,58.52,0,0,1,40,13.47,61.6,61.6,0,0,1,53.82,7.21,68.4,68.4,0,0,1,67.36,4.5,61.78,61.78,0,0,1,95.92,8.77c6.78,2.74,13,6.51,19.48,9.89,5,2.6,10,5.13,14.95,7.75,7.19,3.78,14.34,7.63,21.51,11.42,5.41,2.86,10.85,5.66,16.25,8.52Q179,52.07,189.76,57.83L205.2,66,227,77.5l15.44,8.18q10.9,5.75,21.81,11.5c4.94,2.61,9.85,5.25,14.78,7.86q10.9,5.77,21.82,11.51c5.15,2.72,10.33,5.38,15.43,8.19,5.27,2.9,10.79,5.34,15.77,8.76a54.53,54.53,0,0,1,17,18.08,51.24,51.24,0,0,1,6.15,18.07,49,49,0,0,1,.46,10.6,50.43,50.43,0,0,1-3.74,15.65A52.1,52.1,0,0,1,341,212.26a64,64,0,0,1-16.77,12.06c-7.48,3.87-14.89,7.86-22.34,11.78-5.23,2.77-10.48,5.51-15.71,8.28q-11,5.84-22.06,11.69c-5.24,2.77-10.49,5.49-15.73,8.25-7.36,3.89-14.7,7.81-22.06,11.7l-15.19,8-21.41,11.36c-5.3,2.81-10.62,5.59-15.93,8.39q-10.65,5.63-21.28,11.27t-21,11.09c-6.7,3.55-13.39,7.13-20.09,10.68-4,2.1-7.95,4.23-12,6.24a62.39,62.39,0,0,1-15.85,5.07,55.76,55.76,0,0,1-14,.86,62.68,62.68,0,0,1-14.48-2.56A63.61,63.61,0,0,1,34.7,336.05a52.79,52.79,0,0,1-16-19.67,47.84,47.84,0,0,1-4.2-14.29,77.2,77.2,0,0,1-.55-10.3Z"/></svg>