<svg xmlns="http://www.w3.org/2000/svg" width="507.5" height="507.5" viewBox="0 0 507.5 507.5">
  <path id="shape-10" d="M415,507.5a5,5,0,0,1-5-5V415a5,5,0,0,1,5-5h87.5a5,5,0,0,1,5,5v87.5a5,5,0,0,1-5,5Zm-102.5,0a5,5,0,0,1-5-5V415a5,5,0,0,1,5-5H400a5,5,0,0,1,5,5v87.5a5,5,0,0,1-5,5Zm-102.5,0a5,5,0,0,1-5-5V415a5,5,0,0,1,5-5h87.5a5,5,0,0,1,5,5v87.5a5,5,0,0,1-5,5Zm-205,0a5,5,0,0,1-5-5V210a5,5,0,0,1,5-5H195a5,5,0,0,1,5,5V502.5a5,5,0,0,1-5,5ZM415,405a5,5,0,0,1-5-5V312.5a5,5,0,0,1,5-5h87.5a5,5,0,0,1,5,5V400a5,5,0,0,1-5,5Zm-102.5,0a5,5,0,0,1-5-5V312.5a5,5,0,0,1,5-5H400a5,5,0,0,1,5,5V400a5,5,0,0,1-5,5ZM210,405a5,5,0,0,1-5-5V312.5a5,5,0,0,1,5-5h87.5a5,5,0,0,1,5,5V400a5,5,0,0,1-5,5ZM312.5,302.5a5,5,0,0,1-5-5V5a5,5,0,0,1,5-5h190a5,5,0,0,1,5,5V297.5a5,5,0,0,1-5,5Zm-102.5,0a5,5,0,0,1-5-5V210a5,5,0,0,1,5-5h87.5a5,5,0,0,1,5,5v87.5a5,5,0,0,1-5,5ZM210,200a5,5,0,0,1-5-5V107.5a5,5,0,0,1,5-5h87.5a5,5,0,0,1,5,5V195a5,5,0,0,1-5,5Zm-102.5,0a5,5,0,0,1-5-5V107.5a5,5,0,0,1,5-5H195a5,5,0,0,1,5,5V195a5,5,0,0,1-5,5ZM5,200a5,5,0,0,1-5-5V107.5a5,5,0,0,1,5-5H92.5a5,5,0,0,1,5,5V195a5,5,0,0,1-5,5ZM210,97.5a5,5,0,0,1-5-5V5a5,5,0,0,1,5-5h87.5a5,5,0,0,1,5,5V92.5a5,5,0,0,1-5,5Zm-102.5,0a5,5,0,0,1-5-5V5a5,5,0,0,1,5-5H195a5,5,0,0,1,5,5V92.5a5,5,0,0,1-5,5ZM5,97.5a5,5,0,0,1-5-5V5A5,5,0,0,1,5,0H92.5a5,5,0,0,1,5,5V92.5a5,5,0,0,1-5,5Z" fill="#6d6d6d"/>
</svg>
