<svg id="Layer_1" data-name="Layer 1" xmlns="http://www.w3.org/2000/svg" viewBox="0 0 370 355"><defs><style>.cls-1{fill:none;}.cls-2{fill:#e0e0e0;}</style></defs><title>img-mask (1)</title><rect class="cls-1" width="370" height="355"/><path class="cls-2" d="M178.92,343.83h-6.53c-4.2-.68-8.48-.46-12.69-1.11a166.55,166.55,0,0,1-84.41-39.37,168.41,168.41,0,0,1-36-44.58,165.36,165.36,0,0,1-19.45-58c-.54-3.75-.25-7.56-.91-11.3v-3.27c.48-1,.13-2.11.24-3.16-.11-.81.24-1.66-.24-2.43v-6.06a3.58,3.58,0,0,0,0-2.8v-2.33a1.06,1.06,0,0,0,0-1.4v-2.8c.68-4.05.39-8.18,1-12.24A166.66,166.66,0,0,1,43.84,88,169.13,169.13,0,0,1,92.47,37.48,165.28,165.28,0,0,1,166.91,9.76a113.51,113.51,0,0,1,12.78-.53q76.13-.06,152.25-.06c7.66,0,13,3.55,16.72,9.91,1.45,2.45,1.62,5.18,1.62,7.89q0,79.52,0,159c0,20.76-5.32,40.41-13.53,59.35a166.16,166.16,0,0,1-128.56,97.58c-3.61.51-7.27.48-10.9.68-.84,0-1.71-.24-2.51.23h-.93a3.67,3.67,0,0,0-2.8,0h-.93a3.67,3.67,0,0,0-2.8,0h-5.59A3.67,3.67,0,0,0,178.92,343.83Z"/></svg>