<svg id="Layer_1" data-name="Layer 1" xmlns="http://www.w3.org/2000/svg" viewBox="0 0 370 355"><defs><style>.cls-1{fill:none;}.cls-2{fill:#e0e0e0;}</style></defs><title>ab-1</title><rect class="cls-1" width="370" height="355"/><path class="cls-2" d="M330.34,32.81V253.26c-1,1.07-2.3,1.12-3.61,1.1a53.2,53.2,0,0,0-5.52.58c-7.08.57-13.4,3.62-20,5.85a6.71,6.71,0,0,0-2.42.39c-5.48,2.76-11.08,5.29-16.08,8.9a5.5,5.5,0,0,0-3.82,2.82c-5.53,3.79-9.47,9.23-14.27,13.78a5,5,0,0,0-1.42,2,4.66,4.66,0,0,1-.76,1,13.27,13.27,0,0,0-4.16,5.48c-2.2,4.51-5.26,8.5-7.23,13.11a10,10,0,0,0-1,4.27,97.59,97.59,0,0,0-5.61,19.84c-.58,3.34-2,4.27-5.5,4.27-19,0-38,.11-57,0-10.1-.07-17.69-7.87-17.73-18.15-.09-25.07,0-50.14,0-75.21q0-28.78,0-57.59a13.2,13.2,0,0,1,.32-4.43c.49-1.41,1.84-1.84,3-2.35,4.32-1.95,8.31-4.48,12.41-6.8,1.84-.2,2.93-1.44,3.93-2.82,3.74-1.76,6.57-4.76,9.72-7.31,2-.24,3-1.94,4.35-3.16,1.54-1.44,3-3,4.42-4.53,2.4-2.66,5.69-4.53,7.12-8a2.79,2.79,0,0,1,.68-1c1.77-1.79,4.12-3.07,4.9-5.71a3,3,0,0,1,.65-1,3.78,3.78,0,0,0,1.62-2.44,2.78,2.78,0,0,1,.65-.94,3.77,3.77,0,0,0,1.59-2.42,3.14,3.14,0,0,1,.64-.94c1.08-.63,1.38-1.74,1.77-2.82a3.88,3.88,0,0,1,.86-.95c3.35-7.54,7.43-14.73,10-22.65a168.51,168.51,0,0,0,5.48-21,36.66,36.66,0,0,0,.67-5.82c.14-5.84,1.38-11.59,1.15-17.5a134.06,134.06,0,0,0-6.75-38.56c-.47-1.38-1.23-2.77,0-4.19,1.16-.79,2.49-.67,3.78-.67q38,0,75.93,0a17,17,0,0,1,3.88.36C324.73,19.88,329.75,24.32,330.34,32.81ZM66.58,153.22c.63.41,1.47.44,1.93,1.13.82.36,1.64.74,2.47,1.08,18.47,7.52,37.41,10.51,57.29,6.81,9.61-1.79,18.84-4.35,27.55-8.83,1.32-.68,1.11-1.53,1.11-2.47q0-66.68,0-133.36a13.72,13.72,0,0,0-4.71-10.36c-1.86-1.73-4.23-2.47-6.46-3.5H49.55c-.09.15-.16.38-.29.43-7.59,2.63-10.41,8.13-10.39,15.94q.2,54.27,0,108.54a7.27,7.27,0,0,0,2.48,6.11c5.3,4.91,10.44,10,16.57,13.9C60.89,150,63.53,152,66.58,153.22Zm238,136.1c-3.86,1.58-6.84,4.48-10.2,6.8A54.44,54.44,0,0,0,282.68,309c-3.2,5.17-6.48,10.27-8.88,15.88-.67,2.7-1.22,5.43-2.05,8.08-.6,1.91-.39,2.62,1.85,2.61,13.42-.09,26.83,0,40.25-.07a16.6,16.6,0,0,0,15.44-10.91c.32-.84.21-1.87,1-2.49V281.23c-5.8-.79-11,1.51-16.23,3.32C310.89,286.08,307.66,287.58,304.56,289.32ZM38.93,173.41V335.63c0,9.95,5.61,15.54,15.6,15.54h86.4c10.56,0,16-5.44,16-16V183.74c-41.6,15.19-80.76,11-118-14Zm128.66-26.14c5.32-3.28,8.94-8.56,14.14-12,3.14-2.67,5.33-6.19,8.14-9.14a55.2,55.2,0,0,0,8.24-11.55,108.44,108.44,0,0,0,11-26.5,114,114,0,0,0,2.75-16.9A89,89,0,0,0,210.76,46a111.61,111.61,0,0,0-7-23.3c-.59-1.35-.89-3.12-2.64-3.75-6.32,0-12.65-.13-19-.08a16.71,16.71,0,0,0-16.77,16.9c-.06,10,0,19.92,0,29.88q0,40.91,0,81.82C166.2,148.34,166.87,147.56,167.59,147.27Z"/></svg>