<svg id="Layer_1" data-name="Layer 1" xmlns="http://www.w3.org/2000/svg" viewBox="0 0 370 355"><defs><style>.cls-1{fill:none;}.cls-2{fill:#e0e0e0;}</style></defs><title>ft-1</title><rect class="cls-1" width="370" height="355"/><path class="cls-2" d="M158.87,29A20,20,0,1,0,138.7,49.2,20.06,20.06,0,0,0,158.87,29Z"/><path class="cls-2" d="M127,71.37a40.84,40.84,0,0,0-10.08-1.87c-6.6-.53-13.65-.24-19.3,2.3C83.68,78.1,75.83,94.37,79.1,108.72,82,121.53,94.22,130.45,109,130.52a25.7,25.7,0,0,0,7.7-1c14-3.94,25.83-19.51,26.4-34.7C143.56,83,138.13,75.18,127,71.37Z"/><path class="cls-2" d="M271.06,106.72c.86-8.81,1-17.69-.8-26.39a129.31,129.31,0,0,0-5.82-20.23c-.81-1.06-.8-2.41-1.4-3.6a126.63,126.63,0,0,0-6.87-12.65,75.92,75.92,0,0,1-5-7.46c-3-3.21-5.45-6.94-8.47-10.19C237.5,20.56,231.37,16,225.23,11.48c-1.62-1.2-3.45-2.36-5.71-1.72a36.09,36.09,0,0,0-6.7,4.07,121.6,121.6,0,0,0-23.51,23.48C171.13,61.57,163.15,88.81,167,119c3.68,28.73,17.12,52.82,37.09,73.52,1.72,1.79,3.21,2.18,4.9,1.77,1.28-.62,2.55-1.27,3.8-2,7.3-4,14.52-8,20.51-14,3.29-3.29,7.11-6,10.15-9.61,5.11-6.08,10.47-11.89,14.38-19q1.25-2.25,2.41-4.55a113,113,0,0,0,6.12-14.57A108.06,108.06,0,0,0,271.06,106.72Z"/><path class="cls-2" d="M308.75,5.44a3.89,3.89,0,0,0-1.79-.2H268.59c-.78,0-1.89-.38-2.26.35a.56.56,0,0,0,0,.12c3.22,3.83,6.65,7.5,9.54,11.62,3.48,4.34,6.19,9.19,9.19,13.87,2.2,4.27,4.53,8.49,6.33,13,2,5.69,4.24,11.32,6,17.1a137.26,137.26,0,0,1,3.95,19.77,142.82,142.82,0,0,1,1.36,16.64,126.55,126.55,0,0,1-1.75,22.86,129.78,129.78,0,0,1-11.77,36.38,134.27,134.27,0,0,1-19.59,30.63,120.56,120.56,0,0,1-17.93,16.58l-1.13.9c-4.44,3.43-9.11,6.55-14.05,10.08,21.57,9.58,43.28,16.54,67.09,14.56,12.94-1.07,23.13-6.41,30.61-17a63.63,63.63,0,0,0,7.59-14.41c.44-1.18.44-2.57,1.51-3.47V5.53Z"/><path class="cls-2" d="M243.35,230a59.45,59.45,0,1,0,59.25,59.49A59.45,59.45,0,0,0,243.35,230Z"/><path class="cls-2" d="M180.59,233.14a37.21,37.21,0,0,1-5.4.41A141.4,141.4,0,0,1,146,232.33a129.63,129.63,0,0,1-24-5.85c-6.87-2.27-13.26-5.74-19.81-8.81-8.51-4-15.94-9.48-23-15.51l-.14-.11c-7.09-5.69-13.08-12.45-18.79-19.46-3.15-3.87-6.37-7.86-8.55-12.3-.12-.24-.24-.48-.35-.72l-.18-.27a4.28,4.28,0,0,0-.68.76c-10.53,22.21-18,45.31-20.08,69.95-.53,6.47-.12,12.79,2.6,19,15.65,35.54,58,55.17,95.06,43.77,32.28-9.92,52.3-39.81,55.06-67.05C183.47,233.32,183,232.61,180.59,233.14Z"/><path class="cls-2" d="M110.5,185.67C120.29,191,130,196.35,140.89,199a164.54,164.54,0,0,0,18.48,3c2.45.31,4.91.52,7.37.65s5.2.05,7.94-.07c-1.05-1.42-1.69-2.31-2.35-3.17a196.93,196.93,0,0,0-41.94-40c-10.44-7.48-21.33-14.16-33.63-18.2-6-2-12.12-3.31-18.42-1.75s-6.19,1.65-3.23,7.28c0,.08,0,.21,0,.3.42,1,.87,2,1.33,2.91,2.85,5,5.67,10,9.91,14.15C94.11,171.64,100.68,180.3,110.5,185.67Z"/></svg>