<svg xmlns="http://www.w3.org/2000/svg" width="508" height="508" viewBox="0 0 508 508">
  <path id="shape-9" d="M262.136,508a5,5,0,0,1-5-5V390.7a5,5,0,0,1,5-5h112.3a5,5,0,0,1,5,5V503a5,5,0,0,1-5,5Zm-128.568,0a5,5,0,0,1-5-5V390.7a5,5,0,0,1,5-5h112.3a5,5,0,0,1,5,5V503a5,5,0,0,1-5,5ZM5,508a5,5,0,0,1-5-5V390.7a5,5,0,0,1,5-5H117.3a5,5,0,0,1,5,5V503a5,5,0,0,1-5,5ZM390.7,379.432a5,5,0,0,1-5-5v-112.3a5,5,0,0,1,5-5H503a5,5,0,0,1,5,5v112.3a5,5,0,0,1-5,5Zm-128.568,0a5,5,0,0,1-5-5v-112.3a5,5,0,0,1,5-5h112.3a5,5,0,0,1,5,5v112.3a5,5,0,0,1-5,5Zm-128.568,0a5,5,0,0,1-5-5v-112.3a5,5,0,0,1,5-5h112.3a5,5,0,0,1,5,5v112.3a5,5,0,0,1-5,5ZM5,379.432a5,5,0,0,1-5-5v-112.3a5,5,0,0,1,5-5H117.3a5,5,0,0,1,5,5v112.3a5,5,0,0,1-5,5ZM390.7,250.864a5,5,0,0,1-5-5v-112.3a5,5,0,0,1,5-5H503a5,5,0,0,1,5,5v112.3a5,5,0,0,1-5,5Zm-128.568,0a5,5,0,0,1-5-5v-112.3a5,5,0,0,1,5-5h112.3a5,5,0,0,1,5,5v112.3a5,5,0,0,1-5,5Zm-128.568,0a5,5,0,0,1-5-5v-112.3a5,5,0,0,1,5-5h112.3a5,5,0,0,1,5,5v112.3a5,5,0,0,1-5,5ZM262.136,122.3a5,5,0,0,1-5-5V5a5,5,0,0,1,5-5h112.3a5,5,0,0,1,5,5V117.3a5,5,0,0,1-5,5Zm-128.568,0a5,5,0,0,1-5-5V5a5,5,0,0,1,5-5h112.3a5,5,0,0,1,5,5V117.3a5,5,0,0,1-5,5ZM5,122.3a5,5,0,0,1-5-5V5A5,5,0,0,1,5,0H117.3a5,5,0,0,1,5,5V117.3a5,5,0,0,1-5,5Z" fill="#6d6d6d"/>
</svg>
