<svg id="Layer_1" data-name="Layer 1" xmlns="http://www.w3.org/2000/svg" viewBox="0 0 370 355"><defs><style>.cls-1{fill:none;}.cls-2{fill:#e0e0e0;}</style></defs><title>choosing-m-shape</title><rect class="cls-1" width="370" height="355"/><path class="cls-2" d="M345.94,138v88a2.34,2.34,0,0,0-.14,1.45c.45,19.09-6.49,35.48-18.37,50a81.14,81.14,0,0,1-22.76,18.72c-20.46,11.76-40.85,23.64-61.3,35.41-6.4,3.68-12.61,7.68-19.32,10.8a72,72,0,0,1-23.64,6.74,108.25,108.25,0,0,1-17.46.16c-12.67-.87-24.16-5.26-35-11.68-8.46-5-17-9.87-25.5-14.79-2.85-1.65-3-1.88-2.3-5.15q2.57-12.39,6.18-24.52a292.05,292.05,0,0,1,18.41-46.88,268.46,268.46,0,0,1,26.45-43,265.79,265.79,0,0,1,21.67-25.14,251,251,0,0,1,37.06-31.14,258.87,258.87,0,0,1,37.65-21.48,311.37,311.37,0,0,1,55.69-19.56c4.11-1,8.24-2,12.4-2.82,2.12-.41,2.48-.2,3.36,1.72a74.88,74.88,0,0,1,6.34,21.29,75.11,75.11,0,0,1,.43,10.29A2.83,2.83,0,0,0,345.94,138ZM174.61,4.69a67.22,67.22,0,0,0-19.22,4.12A99.13,99.13,0,0,0,138.46,17Q102.58,37.8,66.64,58.47A87.6,87.6,0,0,0,47.91,72.28a83.37,83.37,0,0,0-16.36,22.9,75.89,75.89,0,0,0-7.89,34.52c0,1.08.37,1.54,1.4,1.65,2,.23,4,.41,6,.67a318,318,0,0,1,51.89,11,267,267,0,0,1,48,19.68,225.12,225.12,0,0,1,37.21,25c1.8,1.49,2.27,1.48,3.77-.31,3.12-3.7,6.27-7.38,9.61-10.88A260.36,260.36,0,0,1,267.14,116a313.7,313.7,0,0,1,34.05-12.7c6.81-2.13,13.67-4.09,20.62-5.69,3.31-.76,6.63-1.43,9.92-2.26,1.69-.42,1.92-1,1.16-2.6-.35-.72-.79-1.39-1.18-2.08a80.45,80.45,0,0,0-24.62-27.13c-4.94-3.41-10.24-6.21-15.42-9.21Q258,34.81,224.27,15.37c-12.19-7-25.17-11.25-39.43-10.79a2.27,2.27,0,0,1-1.45-.14h-.9C179.88,4.86,177.24,4.58,174.61,4.69ZM165,195.49a155.85,155.85,0,0,0-13.43-10.36,225.7,225.7,0,0,0-25.42-15.42c-4.67-2.44-9.4-4.76-14.22-6.89-6.79-3-13.69-5.72-20.68-8.23-7.91-2.83-15.95-5.23-24.06-7.38-6-1.58-11.94-2.9-18-4.12-4.86-1-9.76-1.72-14.66-2.48-2.85-.43-5.73-.58-8.56-1.13-1.11-.22-1.61.05-1.61,1.42q.08,43.11,0,86.22a68.7,68.7,0,0,0,1.19,12.14,73.66,73.66,0,0,0,7.65,22.06,76.42,76.42,0,0,0,17.41,21.95,77.7,77.7,0,0,0,13.94,9.78c7.75,4.2,15.54,8.3,23.31,12.45C95,309.26,102,313,109,316.81c.82.44,1.06.29,1.34-.52.64-1.86,1.41-3.68,2.06-5.54,3.22-9.2,5.87-18.58,8.84-27.86,2-6.29,4.11-12.55,6.42-18.74,2.72-7.28,5.64-14.47,9-21.5,2-4.34,4.18-8.63,6.5-12.84,2.61-4.75,5.4-9.39,8.31-14a208.45,208.45,0,0,1,14.45-19.57C165.81,195.67,165.29,195.75,165,195.49Z"/></svg>