<svg id="Layer_1" data-name="Layer 1" xmlns="http://www.w3.org/2000/svg" viewBox="0 0 370 355"><defs><style>.cls-1{fill:none;}.cls-2{fill:#e0e0e0;}</style></defs><title>img-mask</title><rect class="cls-1" width="370" height="355"/><path class="cls-2" d="M4.4,162.12v-5.54a4,4,0,0,0,0-3v-5c.69-6.22,1.25-12.43,3-18.51,5.86-19.91,15.89-37.49,29.29-53.2A136.9,136.9,0,0,1,70.38,47.9C84.24,39.59,99,34.11,115.31,33.06c18.95-1.22,35.9,4.2,51.36,14.87,1.66,1.15,3.27,2.36,4.92,3.51,5.89,4.08,12.07,4.54,18.57,1.52,6.2-2.87,11-7.61,16.12-11.93,2.44-2.06,4.85-4.15,7.38-6.09,5.28-4.08,10.76-7.73,17.77-7.92H239a29.57,29.57,0,0,1,13.73,5,38.3,38.3,0,0,1,11.85,12.48,125,125,0,0,0,8.83,13.17c5.5,6.74,12.6,8.88,20.92,6.31a41,41,0,0,0,9.16-4.11c2.8-1.69,5.59-3.4,8.53-4.86,15.42-7.65,31.32-2.11,39.84,11.61,8,12.82,8.42,26.61,4.22,40.78a29.67,29.67,0,0,1-3.17,7.85,31.45,31.45,0,0,1,7.32-8.8c1.18-1,2.51-1.9,4.11-1,1.44.75,1.23,2.25,1.26,3.58.2,6.74-1.56,13.12-3.57,19.45-6.64,20.85-15,41-24.06,60.9-5.27,11.63-10.62,23.22-16.52,34.54-13.52,25.93-27.65,51.5-45.57,74.75C269.65,306.65,263,314.3,255,320.68a51,51,0,0,1-7.55,5c-2.54,1.79-5.57,1.79-8.46,2.32h-6c-5.4-.63-8.81-4.08-11.62-8.32-4-6-5.95-12.75-7.74-19.59a40,40,0,0,1-.93-4.18c-1.37-9.07-7.26-13.82-15.5-16.32a60.37,60.37,0,0,0-16.37-2.45c-9.31-.16-18.6-.74-27.91-.68a54.46,54.46,0,0,1-18.57-2.83c-3.82-1.35-7.12-3.37-9.09-7.11a16.55,16.55,0,0,1-1.71-10.25c1.16-8.42,4.87-15.86,8.9-23.15,3.69-6.69,7.59-13.27,11.28-20a21.68,21.68,0,0,0,2.62-6,15.3,15.3,0,0,0-5.1,2.59c-9.75,6.29-19.71,12.12-30.69,16.09Q72.18,239.7,37.77,218C27.72,211.61,19,203.92,12.89,193.49c-4.84-8.31-8-17.15-8.24-26.9a1.26,1.26,0,0,0-.25-.94v-2A1.18,1.18,0,0,0,4.4,162.12Z"/></svg>