<svg xmlns="http://www.w3.org/2000/svg" width="875.5" height="507.5" viewBox="0 0 875.5 507.5">
  <path id="shape-10-1" d="M712.227,507.5V410H883.5v97.5Zm-176.057,0V410H707.443v97.5Zm-176.056,0V410H531.387v97.5ZM8,507.5V205H355.33V507.5ZM712.227,405V307.5H883.5V405ZM536.17,405V307.5H707.443V405Zm-176.056,0V307.5H531.387V405ZM536.17,302.5V0H883.5V302.5Zm-176.056,0V205H531.387v97.5Zm0-102.5V102.5H531.387V200Zm-176.057,0V102.5H355.33V200ZM8,200V102.5H179.274V200ZM360.113,97.5V0H531.387V97.5Zm-176.057,0V0H355.33V97.5ZM8,97.5V0H179.274V97.5Z" transform="translate(-8)" fill="#6d6d6d"/>
</svg>
